<?xml version="1.0" encoding="utf-8"?>
<!-- Generator: Adobe Illustrator 22.0.0, SVG Export Plug-In . SVG Version: 6.00 Build 0)  -->
<svg version="1.0" id="Layer_1" xmlns="http://www.w3.org/2000/svg" xmlns:xlink="http://www.w3.org/1999/xlink" x="0px" y="0px"
	 viewBox="0 0 48 48" style="enable-background:new 0 0 48 48;" xml:space="preserve">
<style type="text/css">
	.st0{fill:url(#SVGID_1_);}
	.st1{fill:url(#SVGID_2_);}
	.st2{fill:url(#SVGID_3_);}
	.st3{fill:url(#SVGID_4_);}
	.st4{fill:url(#SVGID_5_);}
	.st5{fill:url(#SVGID_6_);}
	.st6{fill:url(#SVGID_7_);}
</style>
<g>
	<linearGradient id="SVGID_1_" gradientUnits="userSpaceOnUse" x1="4.3518" y1="24.0379" x2="44.4597" y2="24.0379">
		<stop  offset="0" style="stop-color:#411874"/>
		<stop  offset="1" style="stop-color:#F2113B"/>
	</linearGradient>
	<path class="st0" d="M34.7,12.2c0-0.1-0.1-0.2-0.1-0.3L28.7,1.3c-0.3-0.6-0.9-1-1.5-1.2c-0.6-0.2-1.3-0.1-1.9,0.3L15.1,6.9
		C15,7,14.9,7,14.8,7.1c0,0,0,0,0,0c0,0,0,0,0,0c0,0-0.1,0.1-0.1,0.1c0,0,0,0-0.1,0c0,0,0,0,0,0c0,0,0,0,0,0
		c-0.7,0.5-1.2,1.3-1.5,2.2L5.5,39.5c-0.5,2.1,0.7,4.2,2.8,4.7l14.4,3.6c2.1,0.5,4.2-0.7,4.7-2.8L35.1,15C35.3,14,35.2,13,34.7,12.2
		z M26.4,44.8c-0.4,1.5-1.9,2.4-3.3,2L8.6,43.1c-1.5-0.4-2.4-1.9-2-3.3l7.6-30.1c0.2-0.8,0.7-1.4,1.5-1.8c3.4-2.2,6.8-4.3,10.2-6.5
		c0.3-0.2,0.7-0.3,1-0.2c0.3,0.1,0.6,0.3,0.8,0.6l5.9,10.6c0,0.1,0.1,0.1,0.1,0.2c0,0.1,0.1,0.2,0.1,0.2c0.3,0.6,0.3,1.2,0.2,1.8
		L26.4,44.8z"/>
	<linearGradient id="SVGID_2_" gradientUnits="userSpaceOnUse" x1="4.3518" y1="23.9321" x2="44.4597" y2="23.9321">
		<stop  offset="0" style="stop-color:#411874"/>
		<stop  offset="1" style="stop-color:#F2113B"/>
	</linearGradient>
	<path class="st1" d="M41.7,42.3l-2.8-30.9c-0.1-1-0.5-1.9-1.3-2.5c-0.1-0.1-0.2-0.2-0.2-0.2l-9-8c-0.5-0.4-1.2-0.7-1.8-0.6
		c-0.7,0.1-1.3,0.4-1.7,0.9l-0.3,0.4c0.1,0,0.2,0,0.3,0c0.1,0,0.2,0.1,0.3,0.1c0.1-0.1,0.3-0.1,0.4-0.2c0,0,0,0,0,0
		c0.2-0.1,0.5-0.2,0.7-0.1c0,0,0.1,0,0.1,0c0.1,0,0.2,0,0.2,0c0.4,0,0.7,0.1,1,0.3l9,8c0,0.1,0.1,0.1,0.2,0.2
		c0.1,0.1,0.1,0.1,0.2,0.2c0.4,0.4,0.7,1,0.8,1.7l2.8,30.9c0.1,1.5-1,2.8-2.5,3l-12.6,1.1c0,0,0,0,0,0c-0.1,0.2-0.3,0.3-0.5,0.4
		c-0.6,0.1-1.1,0.2-1.7,0.1c-0.1,0-0.2,0-0.4-0.1c0,0-0.1,0-0.1,0l-0.1,0.3c0.1,0,0.1,0,0.2,0l0,0c0.2,0,0.3,0.1,0.4,0.2
		c0.1,0.1,0.1,0.1,0.2,0.2c0,0,0,0,0,0l14.6-1.3C40.3,46.3,41.8,44.5,41.7,42.3z"/>
	<g>
		<linearGradient id="SVGID_3_" gradientUnits="userSpaceOnUse" x1="4.3518" y1="35.5574" x2="44.4597" y2="35.5574">
			<stop  offset="0" style="stop-color:#411874"/>
			<stop  offset="1" style="stop-color:#F2113B"/>
		</linearGradient>
		<path class="st2" d="M18,36.6c-0.2,0.3-0.5,0.6-0.7,0.8c-0.3,0.2-0.6,0.3-0.9,0.4c-0.3,0.1-0.6,0.1-1,0c-0.4-0.1-0.7-0.3-0.9-0.5
			c-0.3-0.2-0.5-0.5-0.6-0.8c-0.2-0.3-0.2-0.7-0.3-1c0-0.4,0-0.7,0.1-1.1c0.1-0.3,0.2-0.5,0.3-0.8c0.1-0.2,0.3-0.5,0.4-0.7
			c0.2-0.2,0.3-0.4,0.5-0.5c0.2-0.1,0.4-0.2,0.7-0.3c0.1,0,0.1,0,0.2,0c0.1,0,0.1,0,0.2,0.1c0.1,0,0.1,0.1,0.2,0.1
			c0,0,0.1,0.1,0.1,0.1c0,0.1,0.1,0.1,0.1,0.2c0,0.1,0,0.1,0,0.2c0,0.1,0,0.2-0.1,0.2c0,0.1-0.1,0.1-0.2,0.2
			c-0.1,0.1-0.3,0.2-0.4,0.3c-0.1,0.1-0.2,0.2-0.3,0.3c-0.1,0.1-0.2,0.2-0.2,0.4c-0.1,0.1-0.1,0.3-0.2,0.5c-0.1,0.2-0.1,0.4-0.1,0.6
			c0,0.2,0,0.4,0.1,0.5c0.1,0.2,0.2,0.3,0.3,0.4c0.1,0.1,0.3,0.2,0.4,0.2c0.2,0.1,0.4,0,0.5,0c0.2-0.1,0.3-0.2,0.4-0.3
			c0.1-0.2,0.3-0.3,0.4-0.6c0.1-0.2,0.2-0.5,0.4-0.7c0.2-0.3,0.3-0.6,0.5-0.8c0.2-0.3,0.4-0.5,0.7-0.7c0.2-0.2,0.5-0.3,0.8-0.4
			c0.3-0.1,0.6-0.1,1,0c0.4,0.1,0.7,0.3,1,0.5c0.3,0.2,0.5,0.5,0.7,0.8c0.2,0.3,0.3,0.7,0.3,1.1c0,0.4,0,0.8-0.1,1.2
			c-0.1,0.3-0.2,0.6-0.4,0.9c-0.2,0.3-0.4,0.5-0.6,0.7c-0.2,0.2-0.4,0.4-0.7,0.5c-0.2,0.1-0.5,0.2-0.8,0.3c-0.1,0-0.2,0-0.3,0
			c-0.1,0-0.2-0.1-0.3-0.1c-0.1,0-0.1-0.1-0.2-0.2c0-0.1-0.1-0.1-0.1-0.2c0-0.2,0-0.3,0.1-0.5c0.1-0.1,0.3-0.2,0.5-0.4
			c0.3-0.1,0.6-0.3,0.9-0.6c0.2-0.3,0.4-0.6,0.5-1c0-0.2,0.1-0.4,0.1-0.6c0-0.2,0-0.4-0.1-0.6c-0.1-0.2-0.2-0.3-0.3-0.5
			c-0.1-0.1-0.3-0.2-0.5-0.3c-0.2-0.1-0.4,0-0.5,0c-0.2,0.1-0.3,0.2-0.4,0.3c-0.1,0.1-0.2,0.3-0.3,0.5c-0.1,0.2-0.2,0.4-0.3,0.5
			C18.4,35.9,18.2,36.3,18,36.6z"/>
		<linearGradient id="SVGID_4_" gradientUnits="userSpaceOnUse" x1="4.3518" y1="29.0881" x2="44.4597" y2="29.0881">
			<stop  offset="0" style="stop-color:#411874"/>
			<stop  offset="1" style="stop-color:#F2113B"/>
		</linearGradient>
		<path class="st3" d="M22.1,27l-0.9,3.4l1.8,1.3c0.1,0.1,0.1,0.1,0.2,0.2c0,0.1,0.1,0.2,0.1,0.3c0,0.1,0,0.2,0,0.3
			c0,0.1-0.1,0.2-0.1,0.3c-0.1,0.2-0.3,0.2-0.5,0.2c-0.2,0-0.3,0-0.5-0.2l-6.4-5c-0.1-0.1-0.2-0.2-0.2-0.3c0-0.1,0-0.3,0-0.4
			c0-0.1,0.1-0.2,0.2-0.3c0.1-0.1,0.2-0.1,0.4-0.2l8-1.3c0.2,0,0.4,0,0.5,0.1c0.2,0.1,0.2,0.2,0.3,0.4c0,0.1,0,0.2,0,0.3
			c0,0.1-0.1,0.2-0.1,0.2c-0.1,0.1-0.1,0.1-0.2,0.2c-0.1,0.1-0.2,0.1-0.3,0.1L22.1,27z M20.1,29.4l0.6-2.3l-3,0.5L20.1,29.4z"/>
		<linearGradient id="SVGID_5_" gradientUnits="userSpaceOnUse" x1="4.3518" y1="21.9064" x2="44.4597" y2="21.9064">
			<stop  offset="0" style="stop-color:#411874"/>
			<stop  offset="1" style="stop-color:#F2113B"/>
		</linearGradient>
		<path class="st4" d="M24.3,22.8L25,20c0-0.2,0.2-0.3,0.3-0.4c0.2-0.1,0.3-0.1,0.5-0.1c0.1,0,0.2,0.1,0.2,0.1
			c0.1,0.1,0.1,0.1,0.2,0.2c0,0.1,0.1,0.2,0.1,0.2c0,0.1,0,0.2,0,0.3l-0.9,3.5l0,0.1c-0.1,0.1-0.2,0.3-0.3,0.3
			c-0.1,0.1-0.3,0.1-0.5,0l-7.2-1.8c-0.1,0-0.2-0.1-0.2-0.1c-0.1-0.1-0.1-0.1-0.2-0.2c0-0.1-0.1-0.2-0.1-0.2s0-0.2,0-0.3
			c0-0.1,0.1-0.2,0.1-0.2c0.1-0.1,0.1-0.1,0.2-0.2c0.1,0,0.2-0.1,0.2-0.1c0.1,0,0.2,0,0.3,0L24.3,22.8z"/>
		<linearGradient id="SVGID_6_" gradientUnits="userSpaceOnUse" x1="4.3518" y1="15.1953" x2="44.4597" y2="15.1953">
			<stop  offset="0" style="stop-color:#411874"/>
			<stop  offset="1" style="stop-color:#F2113B"/>
		</linearGradient>
		<path class="st5" d="M26.9,18.1c-0.1,0.2-0.2,0.3-0.3,0.4c-0.2,0.1-0.3,0.1-0.5,0.1l-7.2-1.8c-0.1,0-0.2-0.1-0.2-0.1
			c-0.1-0.1-0.1-0.1-0.2-0.2c0-0.1-0.1-0.2-0.1-0.3c0-0.1,0-0.2,0-0.3l0.9-3.6c0-0.1,0.1-0.2,0.1-0.2c0.1-0.1,0.1-0.1,0.2-0.2
			c0.1,0,0.2-0.1,0.2-0.1c0.1,0,0.2,0,0.3,0c0.2,0,0.3,0.1,0.4,0.3c0.1,0.2,0.1,0.3,0.1,0.5l-0.7,2.9l2.3,0.6l0.5-2.1
			c0-0.1,0.1-0.2,0.1-0.2c0.1-0.1,0.1-0.1,0.2-0.2c0.1,0,0.2-0.1,0.2-0.1c0.1,0,0.2,0,0.3,0c0.2,0,0.3,0.1,0.4,0.3
			c0.1,0.2,0.1,0.3,0.1,0.5l-0.5,2.1l2.3,0.6l0.7-2.9c0-0.2,0.2-0.3,0.3-0.4c0.2-0.1,0.3-0.1,0.5-0.1c0.1,0,0.2,0.1,0.2,0.1
			c0.1,0.1,0.1,0.1,0.2,0.2c0,0.1,0.1,0.2,0.1,0.2c0,0.1,0,0.2,0,0.3L26.9,18.1z"/>
	</g>
	<linearGradient id="SVGID_7_" gradientUnits="userSpaceOnUse" x1="4.3518" y1="4.8448" x2="44.4597" y2="4.8448">
		<stop  offset="0" style="stop-color:#411874"/>
		<stop  offset="1" style="stop-color:#F2113B"/>
	</linearGradient>
	<circle class="st6" cx="26" cy="4.8" r="1.4"/>
</g>
</svg>
