<?xml version="1.0" encoding="utf-8"?>
<!-- Generator: Adobe Illustrator 22.0.0, SVG Export Plug-In . SVG Version: 6.00 Build 0)  -->
<svg version="1.1" id="Layer_1" xmlns="http://www.w3.org/2000/svg" xmlns:xlink="http://www.w3.org/1999/xlink" x="0px" y="0px"
	 viewBox="0 0 48 48" style="enable-background:new 0 0 48 48;" xml:space="preserve">
<style type="text/css">
	.st0{fill:url(#SVGID_1_);}
	.st1{fill:url(#SVGID_2_);}
	.st2{fill:url(#SVGID_3_);}
	.st3{fill:url(#SVGID_4_);}
	.st4{fill:url(#SVGID_5_);}
	.st5{fill:url(#SVGID_6_);}
	.st6{fill:url(#SVGID_7_);}
	.st7{fill:url(#SVGID_8_);}
	.st8{fill:url(#SVGID_9_);}
</style>
<g>
	<linearGradient id="SVGID_1_" gradientUnits="userSpaceOnUse" x1="0.3659" y1="24.2269" x2="48.7365" y2="24.2269">
		<stop  offset="0" style="stop-color:#532C89"/>
		<stop  offset="1" style="stop-color:#F2113B"/>
	</linearGradient>
	<path class="st0" d="M24.4,0.9C11.3,0.9,0.7,11.4,0.7,24.2s10.6,23.3,23.6,23.3C37.4,47.5,48,37.1,48,24.2S37.4,0.9,24.4,0.9z
		 M36.4,42.9l-11.3,1c-0.7,0.3-1.5,0.4-2.3,0.2L10.2,41c-1.8-0.4-2.9-2.3-2.5-4.1l6.7-26.5c0.3-0.8,0.7-1.5,1.3-1.9
		c0.1,0,0.1,0,0.1,0l0.1-0.1c0.1-0.1,0.2-0.1,0.3-0.2l9-5.7c0.5-0.4,1.1-0.4,1.7-0.3c0,0,0.1,0,0.1,0.1c0.3,0.1,0.6,0.3,0.9,0.5
		l7.9,7c0,0,0.1,0.1,0.2,0.2c0.7,0.5,1.1,1.3,1.1,2.2l2.5,27.2C39.6,41.3,38.3,42.9,36.4,42.9z"/>
</g>
<g>
	<linearGradient id="SVGID_2_" gradientUnits="userSpaceOnUse" x1="-0.375" y1="22.9565" x2="49.4889" y2="22.9565">
		<stop  offset="0" style="stop-color:#532C89"/>
		<stop  offset="1" style="stop-color:#F2113B"/>
	</linearGradient>
	<path class="st1" d="M33.7,12.3c0-0.1-0.1-0.2-0.1-0.3l-5.3-9.6c-0.3-0.5-0.8-0.9-1.4-1.1c-0.5-0.2-1.2-0.1-1.7,0.3l-9.2,5.9
		c-0.1,0.1-0.2,0.1-0.3,0.2l0,0l0,0l-0.1,0.1c0,0,0,0-0.1,0l0,0l0,0c-0.6,0.5-1.1,1.2-1.4,2L7.2,37c-0.5,1.9,0.6,3.8,2.5,4.3l13,3.3
		c1.9,0.5,3.8-0.6,4.3-2.5l7-27.2C34.2,13.9,34.1,13,33.7,12.3z M26.1,41.8c-0.4,1.4-1.7,2.2-3,1.8L10,40.3c-1.4-0.4-2.2-1.7-1.8-3
		L15.1,10c0.2-0.7,0.6-1.3,1.4-1.6c3.1-2,6.2-3.9,9.2-5.9c0.3-0.2,0.6-0.3,0.9-0.2c0.3,0.1,0.5,0.3,0.7,0.5l5.3,9.6
		c0,0.1,0.1,0.1,0.1,0.2s0.1,0.2,0.1,0.2c0.3,0.5,0.3,1.1,0.2,1.6L26.1,41.8z"/>
	<linearGradient id="SVGID_3_" gradientUnits="userSpaceOnUse" x1="-0.375" y1="22.8965" x2="49.4889" y2="22.8965">
		<stop  offset="0" style="stop-color:#532C89"/>
		<stop  offset="1" style="stop-color:#F2113B"/>
	</linearGradient>
	<path class="st2" d="M40,39.6l-2.5-28c-0.1-0.9-0.5-1.7-1.2-2.3c-0.1-0.1-0.2-0.2-0.2-0.2l-8.2-7.2c-0.5-0.4-1.1-0.6-1.6-0.5
		c-0.6,0.1-1.2,0.4-1.5,0.8l-0.3,0.4c0.1,0,0.2,0,0.3,0c0.1,0,0.2,0.1,0.3,0.1c0.1-0.1,0.3-0.1,0.4-0.2l0,0c0.2-0.1,0.5-0.2,0.6-0.1
		h0.1c0.1,0,0.2,0,0.2,0c0.4,0,0.6,0.1,0.9,0.3l8.2,7.2c0,0.1,0.1,0.1,0.2,0.2c0.1,0.1,0.1,0.1,0.2,0.2c0.4,0.4,0.6,0.9,0.7,1.5
		l2.5,28c0.1,1.4-0.9,2.5-2.3,2.7l-11.4,1l0,0c-0.1,0.2-0.3,0.3-0.5,0.4c-0.5,0.1-1,0.2-1.5,0.1c-0.1,0-0.2,0-0.4-0.1h-0.1l-0.1,0.3
		c0.1,0,0.1,0,0.2,0l0,0c0.2,0,0.3,0.1,0.4,0.2c0.1,0.1,0.1,0.1,0.2,0.2l0,0l13.2-1.2C38.7,43.2,40.1,41.6,40,39.6z"/>
</g>
<g>
	
		<linearGradient id="SVGID_4_" gradientUnits="userSpaceOnUse" x1="6.4784" y1="29.4728" x2="34.5709" y2="29.4728" gradientTransform="matrix(0.997 7.677033e-02 -7.677033e-02 0.997 4.4949 1.1683)">
		<stop  offset="0" style="stop-color:#532C89"/>
		<stop  offset="1" style="stop-color:#F2113B"/>
	</linearGradient>
	<path class="st3" d="M19.3,32.4c-0.1,0.1-0.3,0.3-0.4,0.4c-0.2,0.1-0.3,0.1-0.5,0.2c-0.2,0-0.3,0-0.5,0c-0.2-0.1-0.3-0.2-0.4-0.3
		c-0.1-0.1-0.2-0.3-0.3-0.4c-0.1-0.2-0.1-0.4-0.1-0.5c0-0.2,0-0.4,0.1-0.6c0.1-0.1,0.1-0.2,0.2-0.4c0.1-0.1,0.2-0.2,0.2-0.3
		c0.1-0.1,0.2-0.2,0.3-0.2c0.1,0,0.2-0.1,0.4-0.1c0.1,0,0.1,0,0.1,0s0.1,0,0.1,0.1c0.1,0,0,0.1,0.1,0.1l0,0.1c0,0.1,0,0.1,0,0.1
		c0,0.1,0,0.1,0,0.1c0,0.1,0,0.1-0.1,0.1c0,0.1-0.1,0-0.1,0.1c-0.1,0-0.2,0.1-0.2,0.1c-0.1,0-0.1,0.1-0.2,0.1
		c-0.1,0-0.1,0.1-0.1,0.2c-0.1,0-0.1,0.1-0.1,0.2s-0.1,0.2-0.1,0.3c0,0.1,0,0.2,0,0.3c0,0.1,0.1,0.2,0.1,0.2c0,0.1,0.1,0.1,0.2,0.1
		c0.1,0.1,0.2,0,0.3,0c0.1,0,0.2-0.1,0.2-0.1c0.1-0.1,0.2-0.1,0.2-0.3c0.1-0.1,0.1-0.2,0.2-0.3c0.1-0.1,0.2-0.3,0.3-0.4
		c0.1-0.1,0.2-0.2,0.4-0.3c0.1-0.1,0.3-0.1,0.4-0.2c0.2,0,0.3,0,0.5,0c0.2,0.1,0.3,0.2,0.5,0.3s0.2,0.3,0.3,0.4s0.1,0.4,0.1,0.6
		s0,0.4-0.1,0.6c-0.1,0.1-0.1,0.3-0.2,0.4c-0.1,0.1-0.2,0.2-0.3,0.3s-0.2,0.2-0.4,0.2c-0.1,0-0.3,0.1-0.4,0.1c-0.1,0-0.1,0-0.2,0
		c-0.1,0-0.1-0.1-0.1-0.1c-0.1,0,0-0.1-0.1-0.1c0-0.1,0-0.1,0-0.1c0-0.1,0-0.2,0.1-0.3c0.1,0,0.2-0.1,0.3-0.2c0.2,0,0.3-0.1,0.5-0.3
		c0.1-0.1,0.2-0.3,0.3-0.5c0-0.1,0.1-0.2,0.1-0.3c0-0.1,0-0.2,0-0.3c0-0.1-0.1-0.2-0.1-0.3c0-0.1-0.1-0.1-0.2-0.2
		c-0.1-0.1-0.2,0-0.3,0c-0.1,0-0.2,0.1-0.2,0.1c-0.1,0-0.1,0.1-0.2,0.2c-0.1,0.1-0.1,0.2-0.2,0.2C19.5,32.1,19.4,32.3,19.3,32.4z"/>
	
		<linearGradient id="SVGID_5_" gradientUnits="userSpaceOnUse" x1="11.4467" y1="15.8969" x2="39.5392" y2="15.8969" gradientTransform="matrix(0.9718 0.2357 -0.2357 0.9718 6.0601 -2.7446)">
		<stop  offset="0" style="stop-color:#532C89"/>
		<stop  offset="1" style="stop-color:#F2113B"/>
	</linearGradient>
	<path class="st4" d="M23.7,18.5c-0.1,0.1-0.3,0.2-0.4,0.3c-0.2,0.1-0.3,0.1-0.5,0.1c-0.2,0-0.3,0-0.5-0.1c-0.2-0.1-0.3-0.2-0.4-0.4
		c-0.1-0.1-0.2-0.3-0.2-0.5c-0.1-0.2,0-0.4,0-0.5c0-0.2,0.1-0.3,0.2-0.5c0.1-0.1,0.2-0.2,0.2-0.4c0.1-0.1,0.2-0.2,0.3-0.3
		c0.1-0.1,0.2-0.2,0.3-0.2c0.1,0,0.2-0.1,0.4-0.1c0,0,0,0,0.1,0c0,0,0,0,0.1,0.1c0,0,0,0.1,0.1,0.1l0,0.1c0,0,0,0.1,0,0.1
		c0,0,0,0,0,0.1c0,0,0,0.1-0.1,0.1c0,0-0.1,0-0.1,0.1c-0.1,0-0.2,0.1-0.2,0.1c-0.1,0-0.1,0.1-0.2,0.1s-0.1,0.1-0.1,0.2
		c-0.1,0-0.1,0.1-0.2,0.2c-0.1,0.1-0.1,0.2-0.1,0.3c0,0.1,0,0.2,0,0.3c0,0.1,0.1,0.2,0.1,0.2c0,0.1,0.1,0.1,0.2,0.1
		c0.1,0.1,0.2,0,0.2,0.1c0.1,0,0.2-0.1,0.2-0.1c0.1-0.1,0.2-0.1,0.3-0.2c0.1-0.1,0.2-0.2,0.3-0.3c0.1-0.1,0.2-0.3,0.3-0.3
		c0.1-0.1,0.3-0.2,0.4-0.3c0.1-0.1,0.3-0.1,0.4-0.1c0.2,0,0.3,0,0.5,0.1c0.2,0.1,0.3,0.2,0.4,0.4c0.1,0.1,0.2,0.3,0.3,0.5
		s0.1,0.4,0,0.6c0,0.2-0.1,0.4-0.2,0.6c-0.1,0.1-0.2,0.3-0.3,0.4c-0.1,0.1-0.3,0.2-0.4,0.3c-0.1,0.1-0.2,0.2-0.4,0.2
		c-0.1,0-0.3,0-0.4,0.1c0,0-0.1,0-0.1,0S24,19.7,24,19.7s0-0.1-0.1-0.1c0,0,0-0.1,0-0.1c0-0.1,0-0.1,0.1-0.2c0.1,0,0.2-0.1,0.3-0.1
		c0.2,0,0.3-0.1,0.5-0.2c0.1-0.1,0.3-0.2,0.4-0.4c0-0.1,0.1-0.2,0.1-0.3c0-0.1,0-0.2,0-0.3c0-0.1-0.1-0.2-0.1-0.3
		c0-0.1-0.1-0.1-0.2-0.2c-0.1-0.1-0.2,0-0.2-0.1c-0.1,0-0.2,0.1-0.2,0.1s-0.1,0.1-0.2,0.2s-0.1,0.2-0.2,0.2
		C23.9,18.2,23.8,18.3,23.7,18.5z"/>
	
		<linearGradient id="SVGID_6_" gradientUnits="userSpaceOnUse" x1="6.4784" y1="26.2312" x2="34.5709" y2="26.2312" gradientTransform="matrix(0.997 7.677033e-02 -7.677033e-02 0.997 4.4949 1.1683)">
		<stop  offset="0" style="stop-color:#532C89"/>
		<stop  offset="1" style="stop-color:#F2113B"/>
	</linearGradient>
	<path class="st5" d="M21.7,27.7l-0.6,1.7l0.9,0.7c0,0.1,0,0.1,0.1,0.1c0,0.1,0,0.1,0,0.2c0,0.1,0,0.1,0,0.2c0,0.1-0.1,0.1-0.1,0.1
		c-0.1,0.1-0.2,0.1-0.3,0.1c-0.1,0-0.2,0-0.2-0.1l-3.1-2.8c0-0.1-0.1-0.1-0.1-0.2c0-0.1,0-0.2,0-0.2c0-0.1,0.1-0.1,0.1-0.1
		c0.1,0,0.1,0,0.2-0.1l4.1-0.3c0.1,0,0.2,0,0.3,0.1c0.1,0.1,0.1,0.1,0.1,0.2c0,0.1,0,0.1,0,0.2c0,0.1-0.1,0.1-0.1,0.1
		c-0.1,0-0.1,0-0.1,0.1c-0.1,0-0.1,0-0.2,0L21.7,27.7z M20.6,28.8l0.4-1.1l-1.5,0.1L20.6,28.8z"/>
	
		<linearGradient id="SVGID_7_" gradientUnits="userSpaceOnUse" x1="6.4784" y1="22.5237" x2="34.5709" y2="22.5237" gradientTransform="matrix(0.997 7.677033e-02 -7.677033e-02 0.997 4.4949 1.1683)">
		<stop  offset="0" style="stop-color:#532C89"/>
		<stop  offset="1" style="stop-color:#F2113B"/>
	</linearGradient>
	<path class="st6" d="M23,25.7l0.5-1.4c0-0.1,0.1-0.1,0.2-0.2c0.1,0,0.2,0,0.3,0c0.1,0,0.1,0.1,0.1,0.1c0,0.1,0,0.1,0.1,0.1
		c0,0.1,0,0.1,0,0.1c0,0.1,0,0.1,0,0.2l-0.6,1.7l0,0.1c-0.1,0-0.1,0.1-0.2,0.1c-0.1,0-0.2,0-0.3,0l-3.6-1.2c-0.1,0-0.1-0.1-0.1-0.1
		c0-0.1,0-0.1-0.1-0.1c0-0.1,0-0.1,0-0.1s0-0.1,0-0.2c0-0.1,0.1-0.1,0.1-0.1c0.1,0,0.1,0,0.1-0.1c0.1,0,0.1,0,0.1,0
		c0.1,0,0.1,0,0.2,0L23,25.7z"/>
	
		<linearGradient id="SVGID_8_" gradientUnits="userSpaceOnUse" x1="6.4784" y1="19.1098" x2="34.5709" y2="19.1098" gradientTransform="matrix(0.997 7.677033e-02 -7.677033e-02 0.997 4.4949 1.1683)">
		<stop  offset="0" style="stop-color:#532C89"/>
		<stop  offset="1" style="stop-color:#F2113B"/>
	</linearGradient>
	<path class="st7" d="M24.5,23.4c-0.1,0.1-0.1,0.1-0.2,0.2c-0.1,0-0.2,0-0.3,0l-3.6-1.2c-0.1,0-0.1-0.1-0.1-0.1c0-0.1,0-0.1-0.1-0.1
		c0-0.1,0-0.1,0-0.2c0-0.1,0-0.1,0-0.2l0.6-1.8c0-0.1,0.1-0.1,0.1-0.1c0.1,0,0.1,0,0.1-0.1c0.1,0,0.1,0,0.1,0c0.1,0,0.1,0,0.2,0
		c0.1,0,0.1,0.1,0.2,0.2c0,0.1,0,0.2,0,0.3l-0.5,1.4l1.1,0.4l0.3-1c0-0.1,0.1-0.1,0.1-0.1c0.1,0,0.1,0,0.1-0.1c0.1,0,0.1,0,0.1,0
		c0.1,0,0.1,0,0.2,0c0.1,0,0.1,0.1,0.2,0.2c0,0.1,0,0.2,0,0.3l-0.3,1l1.1,0.4l0.5-1.4c0-0.1,0.1-0.1,0.2-0.2c0.1,0,0.2,0,0.3,0
		c0.1,0,0.1,0.1,0.1,0.1c0,0.1,0,0.1,0.1,0.1c0,0.1,0,0.1,0,0.1c0,0.1,0,0.1,0,0.2L24.5,23.4z"/>
</g>
<linearGradient id="SVGID_9_" gradientUnits="userSpaceOnUse" x1="-0.375" y1="5.5984" x2="49.4889" y2="5.5984">
	<stop  offset="0" style="stop-color:#532C89"/>
	<stop  offset="1" style="stop-color:#F2113B"/>
</linearGradient>
<circle class="st8" cx="25.8" cy="5.6" r="1.3"/>
</svg>
