<?xml version="1.0" encoding="utf-8"?>
<!-- Generator: Adobe Illustrator 22.0.0, SVG Export Plug-In . SVG Version: 6.00 Build 0)  -->
<svg version="1.0" id="Layer_1" xmlns="http://www.w3.org/2000/svg" xmlns:xlink="http://www.w3.org/1999/xlink" x="0px" y="0px"
	 viewBox="0 0 48 48" style="enable-background:new 0 0 48 48;" xml:space="preserve">
<style type="text/css">
	.st0{fill:url(#SVGID_1_);}
	.st1{fill:url(#SVGID_2_);}
	.st2{fill:url(#SVGID_3_);}
	.st3{fill:url(#SVGID_4_);}
	.st4{fill:url(#SVGID_5_);}
	.st5{fill:url(#SVGID_6_);}
</style>
<g>
	<g>
		<linearGradient id="SVGID_1_" gradientUnits="userSpaceOnUse" x1="-0.6896" y1="24.023" x2="52.0475" y2="24.023">
			<stop  offset="0" style="stop-color:#411874"/>
			<stop  offset="1" style="stop-color:#F2113B"/>
		</linearGradient>
		<path class="st0" d="M32,46c-0.2,0-0.4-0.1-0.5-0.3c-0.1-0.3,0-0.6,0.3-0.7c8.4-3.2,14-11.3,14-20.3c0-10.7-7.7-19.8-18.3-21.4
			c-0.3,0-0.5-0.3-0.4-0.6c0-0.3,0.3-0.5,0.6-0.4C33,2.9,37.8,5.7,41.3,9.7c3.6,4.1,5.5,9.4,5.5,14.9c0,4.7-1.4,9.2-4.1,13.1
			c-2.6,3.8-6.3,6.6-10.6,8.2C32.1,45.9,32,46,32,46z"/>
		<g>
			<linearGradient id="SVGID_2_" gradientUnits="userSpaceOnUse" x1="-0.6896" y1="43.9669" x2="52.0475" y2="43.9669">
				<stop  offset="0" style="stop-color:#411874"/>
				<stop  offset="1" style="stop-color:#F2113B"/>
			</linearGradient>
			<polygon class="st1" points="33.5,39.9 34.5,40.4 32.3,45.2 37.3,47 36.9,48 30.9,45.8 			"/>
		</g>
	</g>
	<g>
		<linearGradient id="SVGID_3_" gradientUnits="userSpaceOnUse" x1="-0.6896" y1="24.9489" x2="52.0475" y2="24.9489">
			<stop  offset="0" style="stop-color:#411874"/>
			<stop  offset="1" style="stop-color:#F2113B"/>
		</linearGradient>
		<path class="st2" d="M22.6,47.3C22.6,47.3,22.6,47.3,22.6,47.3c-5.8-0.4-11.2-2.9-15.1-7.1c-4-4.2-6.2-9.8-6.2-15.6
			c0-10.3,7-19.4,16.9-22c0.3-0.1,0.6,0.1,0.7,0.4c0.1,0.3-0.1,0.6-0.4,0.7C9,6.1,2.3,14.8,2.3,24.6c0,11.4,8.9,20.9,20.3,21.7
			c0.3,0,0.5,0.3,0.5,0.6C23.1,47.1,22.9,47.3,22.6,47.3z"/>
		<g>
			<linearGradient id="SVGID_4_" gradientUnits="userSpaceOnUse" x1="-0.6896" y1="4.1892" x2="52.0475" y2="4.1892">
				<stop  offset="0" style="stop-color:#411874"/>
				<stop  offset="1" style="stop-color:#F2113B"/>
			</linearGradient>
			<polygon class="st3" points="16.3,8.4 15.3,7.8 18,3.3 13.2,1 13.7,0 19.5,2.8 			"/>
		</g>
	</g>
	<linearGradient id="SVGID_5_" gradientUnits="userSpaceOnUse" x1="-0.6896" y1="24.6036" x2="52.0475" y2="24.6036">
		<stop  offset="0" style="stop-color:#411874"/>
		<stop  offset="1" style="stop-color:#F2113B"/>
	</linearGradient>
	<path class="st4" d="M24.1,38.9c-7.9,0-14.3-6.4-14.3-14.3s6.4-14.3,14.3-14.3s14.3,6.4,14.3,14.3S32,38.9,24.1,38.9z M24.1,11.4
		c-7.3,0-13.2,5.9-13.2,13.2s5.9,13.2,13.2,13.2s13.2-5.9,13.2-13.2S31.4,11.4,24.1,11.4z"/>
	<linearGradient id="SVGID_6_" gradientUnits="userSpaceOnUse" x1="-0.6896" y1="25.5131" x2="52.0475" y2="25.5131">
		<stop  offset="0" style="stop-color:#411874"/>
		<stop  offset="1" style="stop-color:#F2113B"/>
	</linearGradient>
	<path class="st5" d="M22.7,25.8L22.7,25.8l-2.7,0c-0.2,0-0.5,0.1-0.6,0.4c-0.1,0.2,0,0.5,0.1,0.6l6.6,6.4c0.2,0.1,0.4,0.2,0.6,0.1
		c0.2-0.1,0.4-0.2,0.4-0.4c0.1-0.2,0-0.4-0.2-0.6l-5.5-5.3l1.2,0h0c2.3,0,4.2-1.7,4.5-4l2.1,0h0c0.3,0,0.6-0.3,0.6-0.6
		c0-0.3-0.3-0.6-0.6-0.6l-2.1,0c-0.1-1.1-0.6-2.1-1.5-2.8l3.6,0h0c0.3,0,0.6-0.3,0.6-0.6c0-0.3-0.3-0.6-0.6-0.6l-6.7-0.1l-2.7,0
		c-0.3,0-0.6,0.3-0.6,0.6c0,0.3,0.3,0.6,0.6,0.6l2.7,0c1.7,0,3.1,1.2,3.3,2.9l-6-0.1h0c-0.3,0-0.6,0.3-0.6,0.6
		c0,0.3,0.3,0.6,0.6,0.6l6,0.1C25.7,24.6,24.3,25.8,22.7,25.8L22.7,25.8z M22.7,25.8"/>
</g>
</svg>
