<?xml version="1.0" encoding="utf-8"?>
<!-- Generator: Adobe Illustrator 22.0.0, SVG Export Plug-In . SVG Version: 6.00 Build 0)  -->
<svg version="1.1" id="Layer_1" xmlns="http://www.w3.org/2000/svg" xmlns:xlink="http://www.w3.org/1999/xlink" x="0px" y="0px"
	 viewBox="0 0 48 48" style="enable-background:new 0 0 48 48;" xml:space="preserve">
<style type="text/css">
	.st0{fill:url(#SVGID_1_);}
	.st1{fill:#FFFFFF;}
</style>
<linearGradient id="SVGID_1_" gradientUnits="userSpaceOnUse" x1="1.5036" y1="24" x2="48.5742" y2="24">
	<stop  offset="0" style="stop-color:#532C89"/>
	<stop  offset="1" style="stop-color:#F2113B"/>
</linearGradient>
<circle class="st0" cx="24.9" cy="24" r="23"/>
<g>
	<path class="st1" d="M30.3,40.4c-0.2,0-0.3-0.1-0.4-0.2c-0.1-0.2,0-0.5,0.2-0.6c6.6-2.5,11-8.9,11-16c0-8.4-6.1-15.6-14.4-16.9
		c-0.2,0-0.4-0.2-0.3-0.5c0-0.2,0.2-0.4,0.5-0.3c4.2,0.5,8,2.7,10.7,5.8C40.5,15,42,19.1,42,23.5c0,3.7-1.1,7.3-3.2,10.3
		C36.7,36.8,33.8,39,30.3,40.4C30.4,40.3,30.3,40.4,30.3,40.4z"/>
	<g>
		<polygon class="st1" points="31.5,35.5 32.3,35.9 30.6,39.7 34.5,41.1 34.2,41.9 29.5,40.2 		"/>
	</g>
</g>
<g>
	<path class="st1" d="M22.9,41.4L22.9,41.4c-4.6-0.3-8.8-2.3-11.9-5.6C7.8,32.5,6.1,28,6.1,23.5c0-8.1,5.5-15.3,13.3-17.4
		C19.7,6,19.9,6.2,20,6.4S19.9,6.9,19.7,7C12.2,8.9,6.9,15.7,6.9,23.5c0,9,7,16.5,16,17.1c0.2,0,0.4,0.2,0.4,0.5
		C23.3,41.2,23.1,41.4,22.9,41.4z"/>
	<g>
		<polygon class="st1" points="17.9,10.7 17.1,10.2 19.3,6.7 15.5,4.9 15.9,4.1 20.5,6.3 		"/>
	</g>
</g>
<path class="st1" d="M24.1,34.8c-6.2,0-11.3-5-11.3-11.3s5-11.3,11.3-11.3s11.3,5,11.3,11.3S30.3,34.8,24.1,34.8z M24.1,13.1
	c-5.8,0-10.4,4.7-10.4,10.4s4.7,10.4,10.4,10.4s10.4-4.7,10.4-10.4S29.8,13.1,24.1,13.1z"/>
<path class="st1" d="M23,24.4L23,24.4h-2.1c-0.2,0-0.4,0.1-0.5,0.3c-0.1,0.2,0,0.4,0.1,0.5l5.2,5c0.2,0.1,0.3,0.2,0.5,0.1
	c0.2-0.1,0.3-0.2,0.3-0.3c0.1-0.2,0-0.3-0.2-0.5L22,25.4h0.9l0,0c1.8,0,3.3-1.3,3.6-3.2h1.7l0,0c0.2,0,0.5-0.2,0.5-0.5
	c0-0.2-0.2-0.5-0.5-0.5h-1.7c-0.1-0.9-0.5-1.7-1.2-2.2h2.8l0,0c0.2,0,0.5-0.2,0.5-0.5c0-0.2-0.2-0.5-0.5-0.5L22.8,18h-2.1
	c-0.2,0-0.5,0.2-0.5,0.5s0.2,0.5,0.5,0.5h2.1c1.3,0,2.4,0.9,2.6,2.3l-4.7-0.1l0,0c-0.2,0-0.5,0.2-0.5,0.5s0.2,0.5,0.5,0.5l4.7,0.1
	C25.4,23.5,24.2,24.4,23,24.4L23,24.4z"/>
</svg>
