<?xml version="1.0" encoding="utf-8"?>
<!-- Generator: Adobe Illustrator 22.0.0, SVG Export Plug-In . SVG Version: 6.00 Build 0)  -->
<svg version="1.0" id="Layer_1" xmlns="http://www.w3.org/2000/svg" xmlns:xlink="http://www.w3.org/1999/xlink" x="0px" y="0px"
	 viewBox="0 0 48 48" style="enable-background:new 0 0 48 48;" xml:space="preserve">
<style type="text/css">
	.st0{fill:url(#SVGID_1_);}
	.st1{fill:url(#SVGID_2_);}
	.st2{fill:url(#SVGID_3_);}
	.st3{fill:url(#SVGID_4_);}
	.st4{fill:url(#SVGID_5_);}
</style>
<g>
	<g>
		<linearGradient id="SVGID_1_" gradientUnits="userSpaceOnUse" x1="-1.3223" y1="33.0877" x2="48.5125" y2="33.0877">
			<stop  offset="0" style="stop-color:#411874"/>
			<stop  offset="1" style="stop-color:#F2113B"/>
		</linearGradient>
		<path class="st0" d="M36.9,24.7c-0.2-0.6-0.7-2-2-3.2c-1.3-1.3-2.8-1.9-3.8-2.1l-0.1,0l-6.2-0.1l0,0c-0.3,0-0.6,0.2-0.8,0.3
			c-0.3,0.2-0.5,0.4-0.6,0.6l-0.9,1.2c-0.1,0.1-0.1,0.1-0.2,0.2c-0.2,0.1-0.3,0.1-0.5,0.1l0,0l-2.8,0c-0.1,0-0.2-0.1-0.3-0.1
			c-0.1-0.1-0.2-0.2-0.3-0.3l-0.7-1.1l0,0c-0.2-0.3-0.4-0.5-0.7-0.6c-0.4-0.2-0.8-0.2-1.1-0.2l-6.1,0.1l-0.1,0
			c-0.7,0.1-2,0.4-3.3,1.5c-1.1,0.9-1.6,2-1.8,2.8l0,0L1.2,37.4l0,0c-0.1,0.3-0.2,1,0.2,1.7c0.2,0.4,0.5,0.8,0.9,1.1l4.1,3.1
			c0.3,0.3,0.8,0.4,1.2,0.2C7.8,43.3,8,43,8,42.7l1.6-5l0.2,5.7c0,0.3,0.1,0.7,0.4,1.2c0.2,0.3,0.5,0.6,0.8,0.7
			c0.8,0.4,1.5,0.8,2.4,1c0.9,0.3,2.5,0.7,5.4,0.7c1.1,0,2.3,0,3.8-0.2c2.1-0.2,4.2-0.5,6.3-0.9l-0.2-1c-2.1,0.4-4.1,0.7-6.2,0.8
			c-5.3,0.4-7.5-0.1-8.7-0.5c-0.8-0.3-1.5-0.6-2.2-1c-0.1-0.1-0.3-0.2-0.4-0.4c-0.2-0.2-0.2-0.5-0.2-0.6l-0.3-7.5c0-0.3,0-1-0.5-1.1
			c-0.6-0.1-0.8,0.6-0.9,0.9L7,42.5l-4.1-3.1c-0.2-0.1-0.4-0.3-0.5-0.7c-0.2-0.5-0.2-0.9-0.1-1.1l3.3-13.7c0.2-0.6,0.6-1.5,1.5-2.3
			c1-0.9,2.1-1.1,2.7-1.2l6.1-0.1l0,0c0.1,0,0.3,0,0.5,0.1c0.2,0.1,0.3,0.2,0.4,0.3l0.7,1.1c0,0,0,0,0,0l0.9,2.9l-1.1,8.4l3.7,3.6
			l3.4-3.7L23,24.1l-0.1,0l0.7-2.5l0.6-0.9l0,0c0.1-0.1,0.2-0.2,0.3-0.3c0.1-0.1,0.3-0.1,0.4-0.2l6,0.1c0.9,0.2,2.1,0.8,3.3,1.9
			c1.1,1.1,1.6,2.3,1.8,2.8c0.3,0.8,0.5,1.7,0.5,2.6l1,0C37.4,26.6,37.2,25.6,36.9,24.7z M7,42.6L7,42.6C7,42.6,7,42.6,7,42.6z
			 M21.8,22.6c0.2,0,0.3,0,0.5,0l-0.3,1.1l-2.7,0.1l-0.3-1.1l0,0L21.8,22.6z M23.3,32.6l-2.4,2.5l-2.6-2.5l1.1-7.8l2.6,0L23.3,32.6z
			"/>
		<linearGradient id="SVGID_2_" gradientUnits="userSpaceOnUse" x1="-1.3223" y1="8.9299" x2="48.5125" y2="8.9299">
			<stop  offset="0" style="stop-color:#411874"/>
			<stop  offset="1" style="stop-color:#F2113B"/>
		</linearGradient>
		<path class="st1" d="M20.5,17.9c4.9,0,8.9-4,8.9-8.9S25.5,0,20.5,0s-8.9,4-8.9,8.9S15.6,17.9,20.5,17.9z M20.5,1.1
			c4.3,0,7.9,3.5,7.9,7.9s-3.5,7.9-7.9,7.9s-7.9-3.5-7.9-7.9S16.2,1.1,20.5,1.1z"/>
	</g>
	<g>
		<linearGradient id="SVGID_3_" gradientUnits="userSpaceOnUse" x1="-1.3223" y1="36.2046" x2="48.5125" y2="36.2046">
			<stop  offset="0" style="stop-color:#411874"/>
			<stop  offset="1" style="stop-color:#F2113B"/>
		</linearGradient>
		<path class="st2" d="M38.8,36.2c0-0.8-0.6-1.4-1.4-1.4c-0.8,0-1.4,0.6-1.4,1.4c0,0.8,0.6,1.4,1.4,1.4C38.2,37.6,38.8,37,38.8,36.2
			z"/>
		<linearGradient id="SVGID_4_" gradientUnits="userSpaceOnUse" x1="-1.3223" y1="42.2076" x2="48.5125" y2="42.2076">
			<stop  offset="0" style="stop-color:#411874"/>
			<stop  offset="1" style="stop-color:#F2113B"/>
		</linearGradient>
		<path class="st3" d="M38.1,41.2l-0.4,0.7l0,0c0,0.1-0.1,0.1-0.2,0.1c0,0,0,0,0,0c-0.1,0-0.2-0.1-0.3-0.2l0,0l-0.4-0.7
			c-1.9,0.1-3,0.6-3,1c0,0.3,0.4,0.5,1,0.7c0.7,0.2,1.6,0.3,2.6,0.3c1,0,1.9-0.1,2.6-0.3c0.6-0.2,1-0.5,1-0.7
			C41.1,41.8,40,41.3,38.1,41.2z"/>
		<linearGradient id="SVGID_5_" gradientUnits="userSpaceOnUse" x1="-1.3223" y1="38.7746" x2="48.5125" y2="38.7746">
			<stop  offset="0" style="stop-color:#411874"/>
			<stop  offset="1" style="stop-color:#F2113B"/>
		</linearGradient>
		<path class="st4" d="M37.4,29.6c-5.1,0-9.2,4.1-9.2,9.2c0,5.1,4.1,9.2,9.2,9.2c5.1,0,9.3-4.1,9.3-9.2
			C46.7,33.7,42.5,29.6,37.4,29.6z M40.8,43.3c-0.9,0.3-2.1,0.4-3.4,0.4c-1.3,0-2.5-0.2-3.4-0.4c-1-0.3-1.5-0.7-1.5-1.1
			c0-0.4,0.4-0.8,1.2-1.1c0.7-0.2,1.6-0.4,2.6-0.5l-1.9-3.3l0,0c-0.2-0.4-0.2-0.8-0.2-1.2c0-1.1,0.6-1.8,0.8-2.1c0.2-0.2,1-1,2.4-1
			c0.7,0,1.2,0.3,1.6,0.5c0.5,0.3,0.9,0.8,1.1,1.4c0.2,0.4,0.2,0.8,0.2,0.9c0.1,0.8-0.2,1.4-0.4,1.8l0,0l-1.7,2.9
			c1,0.1,2,0.2,2.6,0.5c0.8,0.3,1.2,0.7,1.2,1.1C42.3,42.7,41.8,43.1,40.8,43.3z"/>
	</g>
</g>
</svg>
