<?xml version="1.0" encoding="utf-8"?>
<!-- Generator: Adobe Illustrator 22.0.0, SVG Export Plug-In . SVG Version: 6.00 Build 0)  -->
<svg version="1.1" id="Layer_1" xmlns="http://www.w3.org/2000/svg" xmlns:xlink="http://www.w3.org/1999/xlink" x="0px" y="0px"
	 viewBox="0 0 48 48" style="enable-background:new 0 0 48 48;" xml:space="preserve">
<style type="text/css">
	.st0{fill:url(#SVGID_1_);}
	.st1{fill:#FFFFFF;}
</style>
<linearGradient id="SVGID_1_" gradientUnits="userSpaceOnUse" x1="1.3611" y1="24" x2="48.4318" y2="24">
	<stop  offset="0" style="stop-color:#532C89"/>
	<stop  offset="1" style="stop-color:#F2113B"/>
</linearGradient>
<circle class="st0" cx="24.7" cy="24" r="23"/>
<g>
	<g>
		<path class="st1" d="M35,23.6c-0.2-0.5-0.6-1.6-1.6-2.5c-1-1-2.2-1.5-3-1.7h-0.1l-4.9-0.1l0,0c-0.2,0-0.5,0.2-0.6,0.2
			c-0.2,0.2-0.4,0.3-0.5,0.5l-0.7,1c-0.1,0.1-0.1,0.1-0.2,0.2c-0.2,0.1-0.2,0.1-0.4,0.1l0,0h-2.2c-0.1,0-0.2-0.1-0.2-0.1
			c-0.1-0.1-0.2-0.2-0.2-0.2L19.8,20l0,0c-0.2-0.2-0.3-0.4-0.6-0.5c-0.3-0.2-0.6-0.2-0.9-0.2l-4.8,0.1h-0.1
			c-0.6,0.1-1.6,0.3-2.6,1.2c-0.9,0.7-1.3,1.6-1.4,2.2l0,0L6.7,33.6l0,0c-0.1,0.2-0.2,0.8,0.2,1.3c0.2,0.3,0.4,0.6,0.7,0.9l3.2,2.5
			c0.2,0.2,0.6,0.3,1,0.2c0.2-0.2,0.3-0.4,0.3-0.6l1.3-4l0.2,4.5c0,0.2,0.1,0.6,0.3,1c0.2,0.2,0.4,0.5,0.6,0.6
			c0.6,0.3,1.2,0.6,1.9,0.8c0.7,0.2,2,0.6,4.3,0.6c0.9,0,1.8,0,3-0.2c1.7-0.2,3.3-0.4,5-0.7l-0.2-0.8c-1.7,0.3-3.2,0.6-4.9,0.6
			c-4.2,0.3-5.9-0.1-6.9-0.4c-0.6-0.2-1.2-0.5-1.7-0.8c-0.1-0.1-0.2-0.2-0.3-0.3c-0.2-0.2-0.2-0.4-0.2-0.5l-0.2-5.9
			c0-0.2,0-0.8-0.4-0.9c-0.5-0.1-0.6,0.5-0.7,0.7l-1.8,5.5l-3.2-2.5c-0.2-0.1-0.3-0.2-0.4-0.6c-0.2-0.4-0.2-0.7-0.1-0.9l2.6-10.8
			c0.2-0.5,0.5-1.2,1.2-1.8c0.8-0.7,1.7-0.9,2.1-1l4.8-0.1l0,0c0.1,0,0.2,0,0.4,0.1c0.2,0.1,0.2,0.2,0.3,0.2l0.6,0.9l0,0l0.7,2.3
			l-0.9,6.6l2.9,2.8l2.7-2.9l-1.1-7h-0.1l0.6-2l0.5-0.7l0,0c0.1-0.1,0.2-0.2,0.2-0.2c0.1-0.1,0.2-0.1,0.3-0.2l4.8,0.1
			c0.7,0.2,1.7,0.6,2.6,1.5c0.9,0.9,1.3,1.8,1.4,2.2c0.2,0.6,0.4,1.3,0.4,2.1h0.8C35.4,25.1,35.2,24.3,35,23.6z M11.3,37.7
			L11.3,37.7L11.3,37.7z M23,21.9c0.2,0,0.2,0,0.4,0l-0.2,0.9l-2.1,0.1L20.8,22l0,0L23,21.9z M24.2,29.8l-1.9,2l-2.1-2l0.9-6.2h2.1
			L24.2,29.8z"/>
		<path class="st1" d="M22,18.2c3.9,0,7-3.2,7-7S26,4,22,4s-7,3.2-7,7S18.1,18.2,22,18.2z M22,4.9c3.4,0,6.3,2.8,6.3,6.3
			s-2.8,6.3-6.3,6.3s-6.3-2.8-6.3-6.3S18.6,4.9,22,4.9z"/>
	</g>
	<g>
		<path class="st1" d="M36.5,32.7c0-0.6-0.5-1.1-1.1-1.1c-0.6,0-1.1,0.5-1.1,1.1s0.5,1.1,1.1,1.1C36,33.8,36.5,33.3,36.5,32.7z"/>
		<path class="st1" d="M36,36.6l-0.3,0.6l0,0c0,0.1-0.1,0.1-0.2,0.1l0,0c-0.1,0-0.2-0.1-0.2-0.2l0,0l-0.3-0.6
			c-1.5,0.1-2.4,0.5-2.4,0.8c0,0.2,0.3,0.4,0.8,0.6c0.6,0.2,1.3,0.2,2.1,0.2c0.8,0,1.5-0.1,2.1-0.2c0.5-0.2,0.8-0.4,0.8-0.6
			C38.3,37.1,37.5,36.7,36,36.6z"/>
		<path class="st1" d="M35.4,27.4c-4,0-7.3,3.2-7.3,7.3s3.2,7.3,7.3,7.3s7.4-3.2,7.4-7.3S39.4,27.4,35.4,27.4z M38.1,38.3
			c-0.7,0.2-1.7,0.3-2.7,0.3c-1,0-2-0.2-2.7-0.3c-0.8-0.2-1.2-0.6-1.2-0.9s0.3-0.6,1-0.9c0.6-0.2,1.3-0.3,2.1-0.4L33,33.5l0,0
			c-0.2-0.3-0.2-0.6-0.2-0.9c0-0.9,0.5-1.4,0.6-1.7c0.2-0.2,0.8-0.8,1.9-0.8c0.6,0,1,0.2,1.3,0.4c0.4,0.2,0.7,0.6,0.9,1.1
			c0.2,0.3,0.2,0.6,0.2,0.7c0.1,0.6-0.2,1.1-0.3,1.4l0,0L36,36.1c0.8,0.1,1.6,0.2,2.1,0.4c0.6,0.2,1,0.6,1,0.9
			C39.3,37.8,38.9,38.1,38.1,38.3z"/>
	</g>
</g>
</svg>
