<?xml version="1.0" encoding="utf-8"?>
<!-- Generator: Adobe Illustrator 22.0.0, SVG Export Plug-In . SVG Version: 6.00 Build 0)  -->
<svg version="1.0" id="Layer_1" xmlns="http://www.w3.org/2000/svg" xmlns:xlink="http://www.w3.org/1999/xlink" x="0px" y="0px"
	 viewBox="0 0 48 48" style="enable-background:new 0 0 48 48;" xml:space="preserve">
<style type="text/css">
	.st0{fill:url(#SVGID_1_);}
	.st1{fill:url(#SVGID_2_);}
	.st2{fill:url(#SVGID_3_);}
	.st3{fill:url(#SVGID_4_);}
</style>
<g>
	<linearGradient id="SVGID_1_" gradientUnits="userSpaceOnUse" x1="0.7712" y1="23.4853" x2="47.5262" y2="23.4853">
		<stop  offset="0" style="stop-color:#411874"/>
		<stop  offset="1" style="stop-color:#F2113B"/>
	</linearGradient>
	<path class="st0" d="M41.5,26.6c1.7,0,3.1-1.4,3.1-3.1s-1.4-3.1-3.1-3.1c-1.7,0-3.1,1.4-3.1,3.1S39.8,26.6,41.5,26.6z M41.5,20.7
		c1.5,0,2.7,1.2,2.7,2.7s-1.2,2.7-2.7,2.7c-1.5,0-2.7-1.2-2.7-2.7S40,20.7,41.5,20.7z"/>
	<linearGradient id="SVGID_2_" gradientUnits="userSpaceOnUse" x1="0.7712" y1="31.7101" x2="47.5262" y2="31.7101">
		<stop  offset="0" style="stop-color:#411874"/>
		<stop  offset="1" style="stop-color:#F2113B"/>
	</linearGradient>
	<path class="st1" d="M47.1,28.6L47.1,28.6c-0.1-0.3-0.3-0.7-0.6-1c-0.4-0.4-0.9-0.5-1.1-0.5l0,0l-2.1,0c-0.1,0-0.2,0-0.4,0.1
		c-0.1,0.1-0.2,0.1-0.3,0.2l0,0l-0.3,0.4c0,0-0.1,0.1-0.1,0.1c0,0-0.1,0-0.1,0l-0.6,0v0l0,0l0,0v0l-0.6,0c0,0-0.1,0-0.1,0
		c0,0-0.1-0.1-0.1-0.1l-0.3-0.4l0,0c-0.1-0.1-0.2-0.2-0.3-0.2c-0.1-0.1-0.3-0.1-0.4-0.1l-2.1,0l0,0c-0.2,0-0.5,0.1-0.8,0.3l-0.4-1.6
		l0,0c-0.2-0.6-0.6-1.4-1.4-2.2c-0.9-0.8-2-1.1-2.5-1.1l0,0l-4.7-0.1c-0.2,0-0.5,0-0.8,0.2c-0.2,0.1-0.4,0.3-0.6,0.5l0,0l-0.6,0.8
		c-0.1,0.1-0.1,0.2-0.2,0.2c-0.1,0-0.2,0.1-0.3,0.1l-1.3,0v0l-0.1,0l-0.1,0v0l-1.3,0c-0.1,0-0.2-0.1-0.3-0.1
		c-0.1-0.1-0.2-0.1-0.2-0.2l-0.6-0.8l0,0c-0.1-0.2-0.3-0.4-0.6-0.5c-0.3-0.2-0.6-0.2-0.8-0.2l-4.7,0.1l0,0c-0.5,0.1-1.6,0.3-2.5,1.1
		c-0.8,0.7-1.2,1.6-1.4,2.2l0,0l-0.3,1.4c-0.2-0.1-0.3-0.1-0.4-0.1l0,0l-2.1,0c-0.1,0-0.2,0-0.4,0.1c-0.1,0.1-0.2,0.1-0.3,0.2l0,0
		l-0.3,0.4c0,0-0.1,0.1-0.1,0.1c0,0-0.1,0-0.1,0l-0.6,0v0l0,0l0,0v0l-0.6,0c0,0-0.1,0-0.1,0c0,0-0.1-0.1-0.1-0.1l-0.3-0.4l0,0
		c-0.1-0.1-0.2-0.2-0.3-0.2c-0.1-0.1-0.3-0.1-0.4-0.1l-2.1,0l0,0c-0.2,0-0.7,0.1-1.1,0.5c-0.4,0.3-0.6,0.7-0.6,1l0,0L0,32.4
		c0.4,0.5,1.1,1.1,2,1.7c2.1,1.3,4.2,1.4,4.6,1.4c1.3,0,2.4-0.3,3.2-0.6c0.9,1,2.2,2.1,3.9,3.2c4.7,2.9,9.2,3,10.1,3
		c4.2,0,7.4-1.4,9.2-2.4c2.3-1.3,3.9-2.8,5-4c1.7,0.7,3.1,0.8,3.4,0.8c1.9,0,3.3-0.6,4.2-1.1c1.2-0.7,2-1.5,2.4-2L47.1,28.6z
		 M40.7,28.3l0.7,0l0.7,0l0,0L42,28.7l-0.5,0v0l0,0l0,0v0l-0.5,0L40.7,28.3L40.7,28.3z M40.9,29l0.5,0l0.5,0l0.4,2.7l-0.9,0.8
		l-0.9-0.8L40.9,29z M22.3,25.1l1.5,0l1.5,0l0,0L25,25.9l-1.1,0v0l-0.1,0l-0.1,0v0l-1.1,0L22.3,25.1L22.3,25.1z M22.7,26.7l1.1,0
		l1.1,0l0.8,6.1l-1.9,1.8l-1.9-1.8L22.7,26.7z M5.9,28.3l0.7,0l0.7,0l0,0l-0.1,0.4l-0.5,0v0l0,0l0,0v0l-0.5,0L5.9,28.3L5.9,28.3z
		 M6.1,29l0.5,0l0.5,0l0.4,2.7l-0.9,0.8l-0.9-0.8L6.1,29z M6.7,35.2C6.6,35.2,6.6,35.2,6.7,35.2c-3.4,0-5.6-2.1-6.3-2.8l0.9-3.7
		c0.1-0.2,0.2-0.5,0.5-0.8c0.3-0.3,0.7-0.4,0.9-0.4l2.1,0l0,0c0,0,0.1,0,0.2,0c0.1,0,0.1,0.1,0.1,0.1L5.4,28c0,0,0,0,0,0l0.3,1
		l-0.4,2.9l1.2,1.2v0.1l0,0l0,0v-0.1l1.2-1.2L7.4,29l0.3-1c0,0,0,0,0,0L8,27.6c0,0,0.1-0.1,0.1-0.1c0.1,0,0.1,0,0.2,0l0,0l2.1,0
		c0.1,0,0.2,0,0.3,0.1l-1.6,6.7c0.1,0.1,0.2,0.3,0.4,0.4C8.7,35,7.7,35.2,6.7,35.2z M23.9,40.4c0,0-0.1,0-0.1,0
		c-7.1,0-11.8-4.1-13.5-6c0,0,0-0.1,0-0.1c0,0,0,0-0.1,0c-0.1-0.1-0.1-0.1-0.2-0.2l2-8.2c0.2-0.5,0.5-1.2,1.2-1.8
		c0.8-0.7,1.6-0.9,2.1-0.9l4.7-0.1l0,0c0.1,0,0.3,0,0.4,0.1c0.1,0.1,0.2,0.2,0.3,0.2l0.6,0.8c0,0,0,0,0,0l0.7,2.2L21,33.1l2.7,2.6
		v0.2l0.1-0.1l0.1,0.1v-0.2l2.7-2.6l-0.9-6.5l0.7-2.2c0,0,0,0,0,0l0.6-0.8c0.1-0.1,0.1-0.2,0.3-0.2c0.2-0.1,0.3-0.1,0.4-0.1l0,0
		l4.7,0.1c0.4,0.1,1.3,0.3,2.1,0.9c0.7,0.6,1,1.3,1.2,1.8l2,8.2c0,0,0,0,0,0c0,0,0,0,0,0.1C36.1,35.8,31.3,40.3,23.9,40.4z
		 M41.5,35.2C41.5,35.2,41.4,35.2,41.5,35.2c-1.3,0-2.4-0.3-3.3-0.7c0.1-0.1,0.2-0.2,0.2-0.3l-1.6-6.5c0.3-0.2,0.6-0.3,0.7-0.3
		l2.1,0l0,0c0,0,0.1,0,0.2,0c0.1,0,0.1,0.1,0.1,0.1l0.3,0.4c0,0,0,0,0,0l0.3,1l-0.4,2.9l1.2,1.2v0.1l0,0l0,0v-0.1l1.2-1.2L42.3,29
		l0.3-1c0,0,0,0,0,0l0.3-0.4c0,0,0.1-0.1,0.1-0.1c0.1,0,0.1,0,0.2,0l0,0l2.1,0c0.2,0,0.6,0.1,0.9,0.4c0.3,0.3,0.5,0.6,0.5,0.8
		l0.9,3.7C47,33.1,44.8,35.2,41.5,35.2z"/>
	<linearGradient id="SVGID_3_" gradientUnits="userSpaceOnUse" x1="0.7712" y1="23.4853" x2="47.5262" y2="23.4853">
		<stop  offset="0" style="stop-color:#411874"/>
		<stop  offset="1" style="stop-color:#F2113B"/>
	</linearGradient>
	<path class="st2" d="M6.7,26.6c1.7,0,3.1-1.4,3.1-3.1s-1.4-3.1-3.1-3.1c-1.7,0-3.1,1.4-3.1,3.1S5,26.6,6.7,26.6z M6.7,20.7
		c1.5,0,2.7,1.2,2.7,2.7s-1.2,2.7-2.7,2.7S3.9,25,3.9,23.5S5.2,20.7,6.7,20.7z"/>
	<linearGradient id="SVGID_4_" gradientUnits="userSpaceOnUse" x1="0.7712" y1="14.4328" x2="47.5262" y2="14.4328">
		<stop  offset="0" style="stop-color:#411874"/>
		<stop  offset="1" style="stop-color:#F2113B"/>
	</linearGradient>
	<path class="st3" d="M24,21.3c3.8,0,6.9-3.1,6.9-6.9c0-3.8-3.1-6.9-6.9-6.9c-3.8,0-6.9,3.1-6.9,6.9C17.1,18.2,20.2,21.3,24,21.3z
		 M24,8.3c3.4,0,6.1,2.7,6.1,6.1c0,3.4-2.7,6.1-6.1,6.1c-3.4,0-6.1-2.7-6.1-6.1C17.9,11.1,20.6,8.3,24,8.3z"/>
</g>
</svg>
