<?xml version="1.0" encoding="utf-8"?>
<!-- Generator: Adobe Illustrator 22.0.0, SVG Export Plug-In . SVG Version: 6.00 Build 0)  -->
<svg version="1.1" id="Layer_1" xmlns="http://www.w3.org/2000/svg" xmlns:xlink="http://www.w3.org/1999/xlink" x="0px" y="0px"
	 viewBox="0 0 48 48" style="enable-background:new 0 0 48 48;" xml:space="preserve">
<style type="text/css">
	.st0{fill:url(#SVGID_1_);}
	.st1{fill:#FFFFFF;}
</style>
<linearGradient id="SVGID_1_" gradientUnits="userSpaceOnUse" x1="1.5036" y1="24" x2="48.5742" y2="24">
	<stop  offset="0" style="stop-color:#532C89"/>
	<stop  offset="1" style="stop-color:#F2113B"/>
</linearGradient>
<circle class="st0" cx="24.9" cy="24" r="23"/>
<g>
	<path class="st1" d="M38,24c1.3,0,2.3-1.1,2.3-2.3s-1-2.3-2.3-2.3c-1.3,0-2.3,1-2.3,2.3S36.7,24,38,24z M38,19.6c1.1,0,2,0.9,2,2
		s-0.9,2-2,2s-2-0.9-2-2S36.9,19.6,38,19.6z"/>
	<path class="st1" d="M42.2,25.5L42.2,25.5c-0.1-0.2-0.2-0.5-0.4-0.8c-0.3-0.3-0.7-0.4-0.8-0.4l0,0h-1.6c-0.1,0-0.2,0-0.3,0.1
		c-0.1,0.1-0.1,0.1-0.2,0.2l0,0l-0.2,0.3L38.5,25h-0.1H38l0,0l0,0l0,0l0,0h-0.4h-0.1l-0.1-0.1l-0.2-0.3l0,0
		c-0.1-0.1-0.2-0.2-0.2-0.2c-0.1-0.1-0.2-0.1-0.3-0.1h-1.6l0,0c-0.2,0-0.4,0.1-0.6,0.2l-0.3-1.2l0,0c-0.2-0.4-0.5-1-1.1-1.6
		c-0.7-0.6-1.5-0.8-1.9-0.8l0,0l-3.5-0.1c-0.1,0-0.4,0-0.6,0.1c-0.2,0.1-0.3,0.2-0.5,0.4l0,0L26.2,22c-0.1,0.1-0.1,0.2-0.1,0.2
		c-0.1,0-0.2,0.1-0.2,0.1h-1l0,0h-0.1h-0.1l0,0h-1c-0.1,0-0.2-0.1-0.2-0.1c-0.1-0.1-0.1-0.1-0.1-0.2l-0.5-0.6l0,0
		c-0.1-0.1-0.2-0.3-0.5-0.4c-0.2-0.1-0.4-0.1-0.6-0.1l-3.5,0.1l0,0c-0.4,0.1-1.2,0.2-1.9,0.8c-0.6,0.5-0.9,1.2-1,1.6l0,0l-0.2,1.1
		c-0.1-0.1-0.2-0.1-0.3-0.1l0,0h-1.6c-0.1,0-0.1,0-0.3,0.1c-0.1,0.1-0.1,0.1-0.2,0.1l0,0l-0.2,0.3L12.5,25h-0.1H12l0,0l0,0l0,0l0,0
		h-0.4h-0.1l-0.1-0.1l-0.2-0.3l0,0c-0.1-0.1-0.1-0.1-0.2-0.1c-0.1-0.1-0.2-0.1-0.3-0.1H9l0,0c-0.2,0-0.5,0.1-0.8,0.4
		c-0.3,0.2-0.5,0.5-0.5,0.8l0,0l-0.9,2.9c0.3,0.4,0.8,0.8,1.5,1.3c1.6,1,3.1,1.1,3.4,1.1c1,0,1.8-0.2,2.4-0.4
		c0.7,0.8,1.6,1.6,2.9,2.4c3.5,2.2,6.9,2.3,7.6,2.3c3.1,0,5.5-1,6.9-1.8c1.7-1,2.9-2.1,3.7-3c1.3,0.5,2.3,0.6,2.5,0.6
		c1.4,0,2.5-0.4,3.2-0.8c0.9-0.5,1.5-1.1,1.8-1.5L42.2,25.5z M37.4,25.3h0.5h0.5l0,0l-0.1,0.3H38l0,0l0,0l0,0l0,0h-0.4L37.4,25.3
		L37.4,25.3z M37.5,25.8h0.4h0.4l0.3,2l-0.7,0.6l-0.7-0.6L37.5,25.8z M23.6,22.9h1.1h1.1l0,0l-0.2,0.6h-0.8l0,0h-0.1h-0.1l0,0h-0.8
		L23.6,22.9L23.6,22.9z M23.9,24.1h0.8h0.8l0.6,4.6L24.7,30l-1.4-1.3L23.9,24.1z M11.3,25.3h0.5h0.5l0,0l-0.1,0.3h-0.4l0,0l0,0l0,0
		l0,0h-0.4L11.3,25.3L11.3,25.3z M11.4,25.8h0.4h0.4l0.3,2l-0.7,0.6l-0.7-0.6L11.4,25.8z M11.9,30.5C11.8,30.5,11.8,30.5,11.9,30.5
		c-2.5,0-4.2-1.6-4.7-2.1l0.7-2.8C7.9,25.5,8,25.2,8.2,25c0.2-0.2,0.5-0.3,0.7-0.3h1.6l0,0c0,0,0.1,0,0.2,0c0.1,0,0.1,0.1,0.1,0.1
		l0.2,0.3l0,0l0.2,0.8L10.8,28l0.9,0.9V29l0,0l0,0v-0.1l0.9-0.9l-0.2-2.2l0.2-0.8l0,0l0.2-0.3l0.1-0.1c0.1,0,0.1,0,0.2,0l0,0h1.6
		c0.1,0,0.1,0,0.2,0.1l-1.2,5c0.1,0.1,0.2,0.2,0.3,0.3C13.4,30.3,12.6,30.5,11.9,30.5z M24.8,34.4L24.8,34.4
		c-5.4,0-8.9-3.1-10.2-4.5v-0.1c0,0,0,0-0.1,0c-0.1-0.1-0.1-0.1-0.1-0.1l1.5-6.1c0.1-0.4,0.4-0.9,0.9-1.4c0.6-0.5,1.2-0.7,1.6-0.7
		l3.5-0.1l0,0c0.1,0,0.2,0,0.3,0.1c0.1,0.1,0.1,0.2,0.2,0.2l0.5,0.6l0,0l0.5,1.7l-0.8,5l2,1.9V31l0.1-0.1l0.1,0.1v-0.2l2-1.9
		L26.1,24l0.5-1.7l0,0l0.5-0.6c0.1-0.1,0.1-0.1,0.2-0.1c0.2-0.1,0.2-0.1,0.3-0.1l0,0l3.5,0.1c0.3,0.1,1,0.2,1.6,0.7
		c0.5,0.4,0.8,1,0.9,1.3l1.5,6.1l0,0c0,0,0,0,0,0.1C33.9,30.9,30.3,34.3,24.8,34.4z M38,30.5C38,30.5,37.9,30.5,38,30.5
		c-1,0-1.8-0.2-2.5-0.5c0.1-0.1,0.2-0.1,0.2-0.2l-1.2-4.9c0.2-0.1,0.5-0.2,0.5-0.2h1.6l0,0c0,0,0.1,0,0.2,0s0.1,0.1,0.1,0.1L37,25
		l0,0l0.2,0.8l-0.3,2.2l0.9,0.9v0.1l0,0l0,0v-0.1l0.9-0.9l-0.2-2.1l0.2-0.8l0,0l0.2-0.3l0.1-0.1c0.1,0,0.1,0,0.2,0l0,0h1.6
		c0.2,0,0.5,0.1,0.7,0.3c0.2,0.2,0.4,0.5,0.4,0.6l0.7,2.8C42.1,28.9,40.5,30.5,38,30.5z"/>
	<path class="st1" d="M11.9,24c1.3,0,2.3-1.1,2.3-2.3s-1.1-2.3-2.3-2.3s-2.3,1-2.3,2.3S10.6,24,11.9,24z M11.9,19.6c1.1,0,2,0.9,2,2
		s-0.9,2-2,2s-2.1-0.8-2.1-2S10.8,19.6,11.9,19.6z"/>
	<path class="st1" d="M24.9,20.1c2.8,0,5.2-2.3,5.2-5.2s-2.3-5.2-5.2-5.2s-5.2,2.3-5.2,5.2S22,20.1,24.9,20.1z M24.9,10.3
		c2.5,0,4.6,2,4.6,4.6s-2,4.6-4.6,4.6s-4.6-2-4.6-4.6C20.3,12.4,22.3,10.3,24.9,10.3z"/>
</g>
</svg>
