<?xml version="1.0" encoding="utf-8"?>
<!-- Generator: Adobe Illustrator 22.0.0, SVG Export Plug-In . SVG Version: 6.00 Build 0)  -->
<svg version="1.0" id="Layer_1" xmlns="http://www.w3.org/2000/svg" xmlns:xlink="http://www.w3.org/1999/xlink" x="0px" y="0px"
	 viewBox="0 0 48 48" style="enable-background:new 0 0 48 48;" xml:space="preserve">
<style type="text/css">
	.st0{fill:url(#SVGID_1_);}
	.st1{fill:url(#SVGID_2_);}
	.st2{fill:url(#SVGID_3_);}
	.st3{fill:url(#SVGID_4_);}
	.st4{fill:url(#SVGID_5_);}
	.st5{fill:url(#SVGID_6_);}
	.st6{fill:url(#SVGID_7_);}
	.st7{fill:url(#SVGID_8_);}
	.st8{fill:url(#SVGID_9_);}
	.st9{fill:url(#SVGID_10_);}
</style>
<g>
	<g>
		<linearGradient id="SVGID_1_" gradientUnits="userSpaceOnUse" x1="-2.0573" y1="33.267" x2="50.9379" y2="33.267">
			<stop  offset="0" style="stop-color:#411874"/>
			<stop  offset="1" style="stop-color:#F2113B"/>
		</linearGradient>
		<path class="st0" d="M36.8,24.8c-0.2-0.6-0.7-2-2-3.2c-1.3-1.3-2.8-1.9-3.8-2.2l-0.1,0l-6.2-0.1l0,0c-0.3,0-0.6,0.2-0.8,0.3
			c-0.3,0.2-0.5,0.4-0.6,0.7l-0.9,1.2c-0.1,0.1-0.1,0.1-0.2,0.2c-0.2,0.1-0.3,0.1-0.5,0.1l0,0l-2.8,0c-0.1,0-0.2-0.1-0.3-0.1
			c-0.1-0.1-0.2-0.2-0.3-0.3l-0.7-1.1l0,0c-0.2-0.3-0.4-0.5-0.7-0.7c-0.4-0.2-0.8-0.2-1.1-0.2l-6.1,0.1l-0.1,0
			c-0.7,0.1-2,0.4-3.3,1.5c-1.1,0.9-1.6,2.1-1.8,2.8l0,0L1,37.6l0,0c-0.1,0.3-0.2,1,0.2,1.7c0.2,0.4,0.5,0.8,0.9,1.1l4.1,3.1
			c0.3,0.3,0.8,0.4,1.2,0.2c0.3-0.2,0.5-0.5,0.5-0.8l1.6-5l0.2,5.7c0,0.3,0.1,0.7,0.4,1.2c0.2,0.3,0.5,0.6,0.8,0.8
			c0.8,0.4,1.6,0.8,2.4,1c1,0.3,2.5,0.7,5.4,0.7c1.1,0,2.3,0,3.8-0.2c2.1-0.2,4.2-0.5,6.3-0.9l-0.2-1c-2.1,0.4-4.2,0.7-6.2,0.8
			c-5.4,0.4-7.6-0.1-8.8-0.5c-0.8-0.3-1.5-0.6-2.2-1c-0.1-0.1-0.3-0.2-0.4-0.4c-0.2-0.2-0.2-0.5-0.2-0.6L10.4,36c0-0.3,0-1-0.5-1.1
			c-0.6-0.1-0.8,0.6-0.9,0.9l-2.2,6.9l-4.1-3.1c-0.2-0.1-0.4-0.4-0.5-0.7C1.9,38.4,2,38,2,37.8L5.3,24c0.2-0.6,0.6-1.5,1.5-2.3
			c1-0.9,2.1-1.1,2.7-1.2l6.1-0.1l0,0c0.1,0,0.3,0,0.5,0.1c0.2,0.1,0.3,0.2,0.4,0.3l0.7,1.1c0,0,0,0,0,0l0.9,2.9l-1.2,8.4l3.7,3.6
			l3.4-3.7l-1.4-8.9l-0.1,0l0.7-2.5l0.6-0.9l0,0c0.1-0.1,0.2-0.2,0.3-0.3c0.1-0.1,0.3-0.1,0.4-0.2l6,0.1c0.9,0.2,2.2,0.8,3.3,1.9
			c1.1,1.1,1.6,2.3,1.8,2.9c0.3,0.8,0.5,1.7,0.5,2.7l1.1,0C37.4,26.7,37.2,25.7,36.8,24.8z M6.8,42.8L6.8,42.8
			C6.8,42.8,6.8,42.8,6.8,42.8z M21.6,22.8c0.2,0,0.3,0,0.5,0l-0.3,1.1l-2.7,0.1l-0.3-1.1l0,0L21.6,22.8z M23.1,32.8l-2.4,2.5
			l-2.6-2.5l1.1-7.9l2.6,0L23.1,32.8z"/>
		<linearGradient id="SVGID_2_" gradientUnits="userSpaceOnUse" x1="-2.0573" y1="8.9783" x2="50.9379" y2="8.9783">
			<stop  offset="0" style="stop-color:#411874"/>
			<stop  offset="1" style="stop-color:#F2113B"/>
		</linearGradient>
		<path class="st1" d="M20.4,18c5,0,9-4,9-9s-4-9-9-9s-9,4-9,9S15.5,18,20.4,18z M20.4,1.1c4.4,0,7.9,3.6,7.9,7.9s-3.6,7.9-7.9,7.9
			s-7.9-3.6-7.9-7.9S16,1.1,20.4,1.1z"/>
	</g>
	<g>
		<g>
			<linearGradient id="SVGID_3_" gradientUnits="userSpaceOnUse" x1="-2.0573" y1="38.7375" x2="50.9379" y2="38.7375">
				<stop  offset="0" style="stop-color:#411874"/>
				<stop  offset="1" style="stop-color:#F2113B"/>
			</linearGradient>
			<path class="st2" d="M37.5,29.5c-5.1,0-9.2,4.1-9.2,9.2c0,5.1,4.1,9.3,9.2,9.3c5.2,0,9.3-4.1,9.3-9.3
				C46.8,33.6,42.7,29.5,37.5,29.5z M40.5,43.7l-3,0.3c-0.2,0.1-0.4,0.1-0.6,0l-3.3-0.8c-0.5-0.1-0.8-0.6-0.6-1.1l1.7-6.9
				c0.1-0.2,0.2-0.4,0.3-0.5c0,0,0,0,0,0c0,0,0,0,0,0c0,0,0,0,0,0c0,0,0,0,0,0c0,0,0,0,0,0c0,0,0,0,0,0c0,0,0,0,0.1,0l2.3-1.5
				c0,0,0,0,0,0c0.1,0,0.1-0.1,0.2-0.1c0.2,0,0.3,0,0.4,0.1l2.1,1.8c0,0,0,0,0.1,0.1c0.2,0.2,0.3,0.4,0.3,0.6l0.6,7.1
				C41.3,43.2,41,43.7,40.5,43.7z"/>
		</g>
		<linearGradient id="SVGID_4_" gradientUnits="userSpaceOnUse" x1="-2.0573" y1="34.4487" x2="50.9379" y2="34.4487">
			<stop  offset="0" style="stop-color:#411874"/>
			<stop  offset="1" style="stop-color:#F2113B"/>
		</linearGradient>
		<circle class="st3" cx="37.8" cy="34.4" r="0.6"/>
		<g>
			<linearGradient id="SVGID_5_" gradientUnits="userSpaceOnUse" x1="-2.0573" y1="41.748" x2="50.9379" y2="41.748">
				<stop  offset="0" style="stop-color:#411874"/>
				<stop  offset="1" style="stop-color:#F2113B"/>
			</linearGradient>
			<path class="st4" d="M35.8,42c-0.1,0.1-0.1,0.1-0.2,0.2c-0.1,0-0.1,0.1-0.2,0.1c-0.1,0-0.2,0-0.2,0c-0.1,0-0.2-0.1-0.2-0.1
				c-0.1-0.1-0.1-0.1-0.1-0.2c0-0.1-0.1-0.2-0.1-0.2c0-0.1,0-0.2,0-0.3c0-0.1,0-0.1,0.1-0.2c0-0.1,0.1-0.1,0.1-0.2
				c0,0,0.1-0.1,0.1-0.1c0,0,0.1-0.1,0.2-0.1c0,0,0,0,0,0c0,0,0,0,0,0c0,0,0,0,0,0c0,0,0,0,0,0c0,0,0,0,0,0c0,0,0,0,0,0.1
				c0,0,0,0,0,0.1c0,0,0,0,0,0c0,0-0.1,0-0.1,0.1c0,0,0,0-0.1,0.1c0,0,0,0.1-0.1,0.1c0,0,0,0.1,0,0.1c0,0,0,0.1,0,0.1
				c0,0,0,0.1,0,0.1c0,0,0,0.1,0.1,0.1c0,0,0.1,0,0.1,0.1c0,0,0.1,0,0.1,0c0,0,0.1,0,0.1-0.1c0,0,0.1-0.1,0.1-0.1
				c0-0.1,0.1-0.1,0.1-0.2c0-0.1,0.1-0.1,0.1-0.2c0-0.1,0.1-0.1,0.2-0.2c0.1,0,0.1-0.1,0.2-0.1c0.1,0,0.2,0,0.2,0
				c0.1,0,0.2,0.1,0.2,0.1c0.1,0.1,0.1,0.1,0.2,0.2c0,0.1,0.1,0.2,0.1,0.3s0,0.2,0,0.3c0,0.1,0,0.2-0.1,0.2c0,0.1-0.1,0.1-0.1,0.2
				c-0.1,0.1-0.1,0.1-0.2,0.1c-0.1,0-0.1,0.1-0.2,0.1c0,0-0.1,0-0.1,0c0,0,0,0-0.1,0c0,0,0,0,0,0c0,0,0,0,0-0.1c0,0,0-0.1,0-0.1
				c0,0,0.1-0.1,0.1-0.1c0.1,0,0.1-0.1,0.2-0.1c0.1-0.1,0.1-0.1,0.1-0.2c0,0,0-0.1,0-0.1c0,0,0-0.1,0-0.1c0,0,0-0.1-0.1-0.1
				c0,0-0.1-0.1-0.1-0.1c0,0-0.1,0-0.1,0c0,0-0.1,0-0.1,0.1c0,0-0.1,0.1-0.1,0.1c0,0,0,0.1-0.1,0.1C35.9,41.8,35.9,41.9,35.8,42z"/>
			<linearGradient id="SVGID_6_" gradientUnits="userSpaceOnUse" x1="-2.0573" y1="40.2234" x2="50.9379" y2="40.2234">
				<stop  offset="0" style="stop-color:#411874"/>
				<stop  offset="1" style="stop-color:#F2113B"/>
			</linearGradient>
			<path class="st5" d="M36.8,39.7l-0.2,0.8l0.4,0.3c0,0,0,0,0,0c0,0,0,0,0,0.1c0,0,0,0,0,0.1c0,0,0,0,0,0.1c0,0-0.1,0.1-0.1,0.1
				c0,0-0.1,0-0.1,0l-1.5-1.2c0,0,0,0-0.1-0.1c0,0,0-0.1,0-0.1c0,0,0-0.1,0-0.1c0,0,0.1,0,0.1,0l1.9-0.3c0,0,0.1,0,0.1,0
				c0,0,0.1,0.1,0.1,0.1c0,0,0,0,0,0.1c0,0,0,0,0,0.1c0,0,0,0,0,0c0,0,0,0-0.1,0L36.8,39.7z M36.3,40.3l0.1-0.5l-0.7,0.1L36.3,40.3z
				"/>
			<linearGradient id="SVGID_7_" gradientUnits="userSpaceOnUse" x1="-2.0573" y1="38.5308" x2="50.9379" y2="38.5308">
				<stop  offset="0" style="stop-color:#411874"/>
				<stop  offset="1" style="stop-color:#F2113B"/>
			</linearGradient>
			<path class="st6" d="M37.3,38.7l0.2-0.7c0,0,0-0.1,0.1-0.1c0,0,0.1,0,0.1,0c0,0,0,0,0.1,0c0,0,0,0,0,0c0,0,0,0,0,0.1
				c0,0,0,0,0,0.1L37.6,39l0,0c0,0,0,0.1-0.1,0.1c0,0-0.1,0-0.1,0l-1.7-0.4c0,0,0,0-0.1,0c0,0,0,0,0,0c0,0,0,0,0-0.1c0,0,0,0,0-0.1
				c0,0,0,0,0-0.1c0,0,0,0,0,0s0,0,0.1,0c0,0,0,0,0.1,0L37.3,38.7z"/>
			<linearGradient id="SVGID_8_" gradientUnits="userSpaceOnUse" x1="-2.0573" y1="36.9492" x2="50.9379" y2="36.9492">
				<stop  offset="0" style="stop-color:#411874"/>
				<stop  offset="1" style="stop-color:#F2113B"/>
			</linearGradient>
			<path class="st7" d="M37.9,37.6C37.9,37.7,37.9,37.7,37.9,37.6c-0.1,0.1-0.1,0.1-0.2,0.1l-1.7-0.4c0,0,0,0-0.1,0s0,0,0,0
				c0,0,0,0,0-0.1c0,0,0,0,0-0.1l0.2-0.8c0,0,0,0,0-0.1c0,0,0,0,0,0c0,0,0,0,0.1,0c0,0,0,0,0.1,0c0,0,0.1,0,0.1,0.1c0,0,0,0.1,0,0.1
				L36.3,37l0.5,0.1l0.1-0.5c0,0,0,0,0-0.1c0,0,0,0,0,0c0,0,0,0,0.1,0c0,0,0,0,0.1,0c0,0,0.1,0,0.1,0.1c0,0,0,0.1,0,0.1l-0.1,0.5
				l0.5,0.1l0.2-0.7c0,0,0-0.1,0.1-0.1c0,0,0.1,0,0.1,0c0,0,0,0,0.1,0c0,0,0,0,0,0c0,0,0,0,0,0.1c0,0,0,0,0,0.1L37.9,37.6z"/>
		</g>
		<g>
			<linearGradient id="SVGID_9_" gradientUnits="userSpaceOnUse" x1="-2.0573" y1="38.5963" x2="50.9379" y2="38.5963">
				<stop  offset="0" style="stop-color:#411874"/>
				<stop  offset="1" style="stop-color:#F2113B"/>
			</linearGradient>
			<path class="st8" d="M39.8,35.8C39.8,35.8,39.8,35.8,39.8,35.8l-1.4-2.5c-0.1-0.1-0.2-0.2-0.4-0.3c-0.2,0-0.3,0-0.4,0.1l-2.4,1.5
				c0,0,0,0-0.1,0c0,0,0,0,0,0c0,0,0,0,0,0c0,0,0,0,0,0c0,0,0,0,0,0c0,0,0,0,0,0c0,0,0,0,0,0c-0.2,0.1-0.3,0.3-0.3,0.5l-1.8,7
				c-0.1,0.5,0.2,1,0.7,1.1l3.4,0.8c0.5,0.1,1-0.2,1.1-0.7l1.8-7C39.9,36.3,39.9,36,39.8,35.8z M37.8,43.4c-0.1,0.3-0.4,0.5-0.8,0.5
				L33.7,43c-0.3-0.1-0.5-0.4-0.5-0.8l1.8-7c0-0.2,0.2-0.3,0.3-0.4c0.8-0.5,1.6-1,2.4-1.5c0.1,0,0.2-0.1,0.2,0s0.1,0.1,0.2,0.1
				l1.4,2.5c0,0,0,0,0,0c0,0,0,0,0,0.1c0.1,0.1,0.1,0.3,0,0.4L37.8,43.4z"/>
			<linearGradient id="SVGID_10_" gradientUnits="userSpaceOnUse" x1="-2.0573" y1="38.5717" x2="50.9379" y2="38.5717">
				<stop  offset="0" style="stop-color:#411874"/>
				<stop  offset="1" style="stop-color:#F2113B"/>
			</linearGradient>
			<path class="st9" d="M41.4,42.8l-0.7-7.2c0-0.2-0.1-0.4-0.3-0.6c0,0,0,0-0.1-0.1l-2.1-1.9C38.2,33,38,33,37.9,33
				c-0.2,0-0.3,0.1-0.4,0.2l-0.1,0.1c0,0,0,0,0.1,0c0,0,0,0,0.1,0c0,0,0.1,0,0.1,0c0,0,0,0,0,0c0.1,0,0.1,0,0.2,0c0,0,0,0,0,0
				c0,0,0,0,0.1,0c0.1,0,0.2,0,0.2,0.1l2.1,1.9c0,0,0,0,0,0c0,0,0,0,0,0c0.1,0.1,0.2,0.2,0.2,0.4l0.7,7.2c0,0.3-0.2,0.7-0.6,0.7
				l-2.9,0.3c0,0,0,0,0,0c0,0-0.1,0.1-0.1,0.1c-0.1,0-0.3,0-0.4,0c0,0-0.1,0-0.1,0c0,0,0,0,0,0l0,0.1c0,0,0,0,0,0l0,0
				c0,0,0.1,0,0.1,0.1c0,0,0,0,0,0c0,0,0,0,0,0l3.4-0.3C41.1,43.8,41.4,43.3,41.4,42.8z"/>
		</g>
	</g>
</g>
</svg>
