<?xml version="1.0" encoding="utf-8"?>
<!-- Generator: Adobe Illustrator 22.0.0, SVG Export Plug-In . SVG Version: 6.00 Build 0)  -->
<svg version="1.1" id="Layer_1" xmlns="http://www.w3.org/2000/svg" xmlns:xlink="http://www.w3.org/1999/xlink" x="0px" y="0px"
	 viewBox="0 0 48 48" style="enable-background:new 0 0 48 48;" xml:space="preserve">
<style type="text/css">
	.st0{fill:url(#SVGID_1_);}
	.st1{fill:#FFFFFF;}
</style>
<linearGradient id="SVGID_1_" gradientUnits="userSpaceOnUse" x1="1.5036" y1="24" x2="48.5742" y2="24">
	<stop  offset="0" style="stop-color:#532C89"/>
	<stop  offset="1" style="stop-color:#F2113B"/>
</linearGradient>
<circle class="st0" cx="24.9" cy="24" r="23"/>
<g>
	<g>
		<path class="st1" d="M37,23.6c-0.1-0.4-0.5-1.4-1.4-2.3c-0.9-0.9-2-1.3-2.7-1.5h-0.1l-4.4-0.1l0,0c-0.2,0-0.4,0.1-0.6,0.2
			c-0.2,0.1-0.4,0.3-0.4,0.5l-0.6,0.8c-0.1,0.1-0.1,0.1-0.1,0.1c-0.1,0.1-0.2,0.1-0.4,0.1l0,0h-2c-0.1,0-0.1-0.1-0.2-0.1
			c-0.1-0.1-0.1-0.1-0.2-0.2l-0.5-0.8l0,0c-0.1-0.2-0.3-0.4-0.5-0.5c-0.3-0.1-0.6-0.1-0.8-0.1l-4.3,0.1h-0.1
			c-0.5,0.1-1.4,0.3-2.3,1.1c-0.8,0.6-1.1,1.5-1.3,2l0,0l-2.5,9.7l0,0c-0.1,0.2-0.1,0.7,0.1,1.2c0.1,0.3,0.4,0.6,0.6,0.8l2.9,2.2
			c0.2,0.2,0.6,0.3,0.8,0.1c0.2-0.1,0.4-0.4,0.4-0.6l1.1-3.5l0.1,4c0,0.2,0.1,0.5,0.3,0.8c0.1,0.2,0.4,0.4,0.6,0.6
			c0.6,0.3,1.1,0.6,1.7,0.7c0.7,0.2,1.8,0.5,3.8,0.5c0.8,0,1.6,0,2.7-0.1c1.5-0.1,3-0.4,4.4-0.6l-0.1-0.7c-1.5,0.3-3,0.5-4.4,0.6
			c-3.8,0.3-5.3-0.1-6.2-0.4c-0.6-0.2-1.1-0.4-1.5-0.7c-0.1-0.1-0.2-0.1-0.3-0.3c-0.1-0.1-0.1-0.4-0.1-0.4l-0.3-5.3
			c0-0.2,0-0.7-0.4-0.8c-0.4-0.1-0.6,0.4-0.6,0.6l-1.5,4.9L13,34c-0.1-0.1-0.3-0.3-0.4-0.5c-0.2-0.4-0.1-0.6-0.1-0.8l2.3-9.7
			c0.1-0.4,0.4-1.1,1.1-1.6c0.7-0.6,1.5-0.8,1.9-0.8l4.3-0.1l0,0c0.1,0,0.2,0,0.4,0.1c0.1,0.1,0.2,0.1,0.3,0.2l0.5,0.8l0,0l0.6,2
			L23,29.5l2.6,2.5l2.4-2.6l-1-6.3h-0.1l0.5-1.8l0.4-0.6l0,0c0.1-0.1,0.1-0.1,0.2-0.2c0.1-0.1,0.2-0.1,0.3-0.1l4.2,0.1
			c0.6,0.1,1.5,0.6,2.3,1.3c0.8,0.8,1.1,1.6,1.3,2c0.2,0.6,0.4,1.2,0.4,1.9h0.8C37.4,24.9,37.2,24.2,37,23.6z M15.9,36.2L15.9,36.2
			L15.9,36.2z M26.3,22.2c0.1,0,0.2,0,0.4,0l-0.2,0.8L24.5,23l-0.2-0.8l0,0L26.3,22.2z M27.3,29.2L25.6,31l-1.8-1.8l0.8-5.6h1.8
			L27.3,29.2z"/>
		<path class="st1" d="M25.4,18.8c3.5,0,6.3-2.8,6.3-6.3s-2.8-6.3-6.3-6.3s-6.3,2.8-6.3,6.3S22,18.8,25.4,18.8z M25.4,6.9
			c3.1,0,5.6,2.5,5.6,5.6S28.4,18,25.4,18s-5.6-2.5-5.6-5.6S22.3,6.9,25.4,6.9z"/>
	</g>
	<g>
		<g>
			<path class="st1" d="M37.5,26.9c-3.6,0-6.5,2.9-6.5,6.5c0,3.6,2.9,6.5,6.5,6.5c3.7,0,6.5-2.9,6.5-6.5
				C44,29.8,41.1,26.9,37.5,26.9z M39.6,36.9l-2.1,0.2c-0.1,0.1-0.3,0.1-0.4,0l-2.3-0.6c-0.4-0.1-0.6-0.4-0.4-0.8l1.2-4.9
				c0.1-0.1,0.1-0.3,0.2-0.4l0,0l0,0l0,0l0,0l0,0l0,0c0,0,0,0,0.1,0l1.6-1.1l0,0c0.1,0,0.1-0.1,0.1-0.1c0.1,0,0.2,0,0.3,0.1l1.5,1.3
				c0,0,0,0,0.1,0.1c0.1,0.1,0.2,0.3,0.2,0.4l0.4,5C40.1,36.5,39.9,36.9,39.6,36.9z"/>
		</g>
		<circle class="st1" cx="37.7" cy="30.3" r="0.4"/>
		<g>
			<path class="st1" d="M36.3,35.7c-0.1,0.1-0.1,0.1-0.1,0.1c-0.1,0-0.1,0.1-0.1,0.1c-0.1,0-0.1,0-0.1,0c-0.1,0-0.1-0.1-0.1-0.1
				c-0.1-0.1-0.1-0.1-0.1-0.1c0-0.1-0.1-0.1-0.1-0.1c0-0.1,0-0.1,0-0.2s0-0.1,0.1-0.1c0-0.1,0.1-0.1,0.1-0.1l0.1-0.1
				c0,0,0.1-0.1,0.1-0.1l0,0l0,0l0,0l0,0l0,0c0,0,0,0,0,0.1c0,0,0,0,0,0.1l0,0c0,0-0.1,0-0.1,0.1c0,0,0,0-0.1,0.1c0,0,0,0.1-0.1,0.1
				v0.1v0.1v0.1c0,0,0,0.1,0.1,0.1c0,0,0.1,0,0.1,0.1h0.1c0,0,0.1,0,0.1-0.1l0.1-0.1c0-0.1,0.1-0.1,0.1-0.1c0-0.1,0.1-0.1,0.1-0.1
				c0-0.1,0.1-0.1,0.1-0.1c0.1,0,0.1-0.1,0.1-0.1s0.1,0,0.1,0c0.1,0,0.1,0.1,0.1,0.1c0.1,0.1,0.1,0.1,0.1,0.1c0,0.1,0.1,0.1,0.1,0.2
				s0,0.1,0,0.2s0,0.1-0.1,0.1c0,0.1-0.1,0.1-0.1,0.1c-0.1,0.1-0.1,0.1-0.1,0.1c-0.1,0-0.1,0.1-0.1,0.1h-0.1c0,0,0,0-0.1,0l0,0
				c0,0,0,0,0-0.1v-0.1l0.1-0.1c0.1,0,0.1-0.1,0.1-0.1c0.1-0.1,0.1-0.1,0.1-0.1v-0.1v-0.1c0,0,0-0.1-0.1-0.1l-0.1-0.1h-0.1
				c0,0-0.1,0-0.1,0.1l-0.1,0.1c0,0,0,0.1-0.1,0.1C36.3,35.5,36.3,35.6,36.3,35.7z"/>
			<path class="st1" d="M37,34l-0.1,0.6l0.3,0.2l0,0c0,0,0,0,0,0.1c0,0,0,0,0,0.1c0,0,0,0,0,0.1L37,35.1H37l-1.1-0.8
				c0,0,0,0-0.1-0.1v-0.1V34h0.1l1.3-0.2h0.1l0.1,0.1c0,0,0,0,0,0.1c0,0,0,0,0,0.1l0,0c0,0,0,0-0.1,0L37,34z M36.6,34.5l0.1-0.4
				l-0.5,0.1L36.6,34.5z"/>
			<path class="st1" d="M37.3,33.3l0.1-0.5c0,0,0-0.1,0.1-0.1h0.1c0,0,0,0,0.1,0l0,0c0,0,0,0,0,0.1c0,0,0,0,0,0.1l-0.1,0.6l0,0
				c0,0,0,0.1-0.1,0.1h-0.1l-1.2-0.3c0,0,0,0-0.1,0l0,0c0,0,0,0,0-0.1c0,0,0,0,0-0.1c0,0,0,0,0-0.1l0,0c0,0,0,0,0.1,0c0,0,0,0,0.1,0
				L37.3,33.3z"/>
			<path class="st1" d="M37.7,32.6C37.7,32.6,37.7,32.6,37.7,32.6c-0.1,0.1-0.1,0.1-0.1,0.1l-1.2-0.3c0,0,0,0-0.1,0c-0.1,0,0,0,0,0
				s0,0,0-0.1c0,0,0,0,0-0.1l0.1-0.6c0,0,0,0,0-0.1l0,0c0,0,0,0,0.1,0c0,0,0,0,0.1,0c0,0,0.1,0,0.1,0.1v0.1l-0.1,0.4l0.4,0.1
				l0.1-0.4c0,0,0,0,0-0.1l0,0c0,0,0,0,0.1,0c0,0,0,0,0.1,0c0,0,0.1,0,0.1,0.1v0.1l-0.1,0.4l0.4,0.1l0.1-0.5c0,0,0-0.1,0.1-0.1h0.1
				c0,0,0,0,0.1,0l0,0c0,0,0,0,0,0.1c0,0,0,0,0,0.1L37.7,32.6z"/>
		</g>
		<g>
			<path class="st1" d="M39.1,31.3L39.1,31.3l-1-1.8c-0.1-0.1-0.1-0.1-0.3-0.2c-0.1,0-0.2,0-0.3,0.1l-1.7,1.1c0,0,0,0-0.1,0l0,0l0,0
				l0,0l0,0l0,0l0,0c-0.1,0.1-0.2,0.2-0.2,0.4l-1.3,4.9c-0.1,0.4,0.1,0.7,0.5,0.8l2.4,0.6c0.4,0.1,0.7-0.1,0.8-0.5l1.3-4.9
				C39.1,31.7,39.1,31.4,39.1,31.3z M37.7,36.7c-0.1,0.2-0.3,0.4-0.6,0.4l-2.3-0.6c-0.2-0.1-0.4-0.3-0.4-0.6l1.3-4.9
				c0-0.1,0.1-0.2,0.2-0.3c0.6-0.4,1.1-0.7,1.7-1.1c0.1,0,0.1-0.1,0.1,0s0.1,0.1,0.1,0.1l1,1.8l0,0c0,0,0,0,0,0.1
				c0.1,0.1,0.1,0.2,0,0.3L37.7,36.7z"/>
			<path class="st1" d="M40.2,36.2l-0.5-5.1c0-0.1-0.1-0.3-0.2-0.4c0,0,0,0-0.1-0.1l-1.5-1.3c0,0-0.1,0-0.2,0
				c-0.1,0-0.2,0.1-0.3,0.1l-0.1,0.1c0,0,0,0,0.1,0c0,0,0,0,0.1,0h0.1l0,0c0.1,0,0.1,0,0.1,0l0,0c0,0,0,0,0.1,0s0.1,0,0.1,0.1
				l1.5,1.3l0,0l0,0c0.1,0.1,0.1,0.1,0.1,0.3l0.5,5.1c0,0.2-0.1,0.5-0.4,0.5l-2,0.2l0,0l-0.1,0.1c-0.1,0-0.2,0-0.3,0h-0.1l0,0v0.1
				l0,0l0,0c0,0,0.1,0,0.1,0.1l0,0l0,0l2.4-0.2C40,36.9,40.2,36.6,40.2,36.2z"/>
		</g>
	</g>
</g>
</svg>
