<?xml version="1.0" encoding="utf-8"?>
<!-- Generator: Adobe Illustrator 22.0.0, SVG Export Plug-In . SVG Version: 6.00 Build 0)  -->
<svg version="1.0" id="Layer_1" xmlns="http://www.w3.org/2000/svg" xmlns:xlink="http://www.w3.org/1999/xlink" x="0px" y="0px"
	 viewBox="0 0 48 48" style="enable-background:new 0 0 48 48;" xml:space="preserve">
<style type="text/css">
	.st0{fill:url(#SVGID_1_);}
	.st1{fill:url(#SVGID_2_);}
	.st2{fill:url(#SVGID_3_);}
	.st3{fill:url(#SVGID_4_);}
	.st4{fill:url(#SVGID_5_);}
	.st5{fill:url(#SVGID_6_);}
	.st6{fill:url(#SVGID_7_);}
	.st7{fill:url(#SVGID_8_);}
	.st8{fill:url(#SVGID_9_);}
	.st9{fill:url(#SVGID_10_);}
	.st10{fill:url(#SVGID_11_);}
	.st11{fill:url(#SVGID_12_);}
	.st12{fill:url(#SVGID_13_);}
	.st13{fill:url(#SVGID_14_);}
</style>
<g>
	<g>
		<linearGradient id="SVGID_1_" gradientUnits="userSpaceOnUse" x1="-1.0238" y1="25.2505" x2="49.7202" y2="25.2505">
			<stop  offset="0" style="stop-color:#411874"/>
			<stop  offset="1" style="stop-color:#F2113B"/>
		</linearGradient>
		<path class="st0" d="M44.5,3.3H13.7c-1.9,0-3.4,1.5-3.4,3.4V18c0.2,0,0.4,0,0.7,0c0.1,0,0.2,0,0.3,0V6.7c0-1.3,1.1-2.4,2.4-2.4
			h30.8c1.3,0,2.4,1.1,2.4,2.4v37c0,1.3-1.1,2.4-2.4,2.4H23.3c-0.1,0.1-0.2,0.3-0.4,0.4c-0.2,0.2-0.5,0.4-0.7,0.6h22.3
			c1.9,0,3.4-1.5,3.4-3.4v-37C47.9,4.8,46.4,3.3,44.5,3.3z"/>
		<linearGradient id="SVGID_2_" gradientUnits="userSpaceOnUse" x1="-1.0238" y1="3.879" x2="49.7202" y2="3.879">
			<stop  offset="0" style="stop-color:#411874"/>
			<stop  offset="1" style="stop-color:#F2113B"/>
		</linearGradient>
		<path class="st1" d="M16.9,7.7h-0.6c-0.3,0-0.6-0.2-0.6-0.6V0.6c0-0.3,0.2-0.6,0.6-0.6h0.6c0.3,0,0.6,0.2,0.6,0.6v6.6
			C17.5,7.5,17.2,7.7,16.9,7.7z"/>
		<linearGradient id="SVGID_3_" gradientUnits="userSpaceOnUse" x1="-1.0238" y1="3.879" x2="49.7202" y2="3.879">
			<stop  offset="0" style="stop-color:#411874"/>
			<stop  offset="1" style="stop-color:#F2113B"/>
		</linearGradient>
		<path class="st2" d="M23.2,7.7h-0.6c-0.3,0-0.6-0.2-0.6-0.6V0.6c0-0.3,0.2-0.6,0.6-0.6h0.6c0.3,0,0.6,0.2,0.6,0.6v6.6
			C23.8,7.5,23.6,7.7,23.2,7.7z"/>
		<linearGradient id="SVGID_4_" gradientUnits="userSpaceOnUse" x1="-1.0238" y1="3.879" x2="49.7202" y2="3.879">
			<stop  offset="0" style="stop-color:#411874"/>
			<stop  offset="1" style="stop-color:#F2113B"/>
		</linearGradient>
		<path class="st3" d="M29.6,7.7H29c-0.3,0-0.6-0.2-0.6-0.6V0.6C28.4,0.3,28.7,0,29,0h0.6c0.3,0,0.6,0.2,0.6,0.6v6.6
			C30.1,7.5,29.9,7.7,29.6,7.7z"/>
		<linearGradient id="SVGID_5_" gradientUnits="userSpaceOnUse" x1="-1.0238" y1="3.879" x2="49.7202" y2="3.879">
			<stop  offset="0" style="stop-color:#411874"/>
			<stop  offset="1" style="stop-color:#F2113B"/>
		</linearGradient>
		<path class="st4" d="M35.9,7.7h-0.6c-0.3,0-0.6-0.2-0.6-0.6V0.6C34.7,0.3,35,0,35.3,0h0.6c0.3,0,0.6,0.2,0.6,0.6v6.6
			C36.4,7.5,36.2,7.7,35.9,7.7z"/>
		<linearGradient id="SVGID_6_" gradientUnits="userSpaceOnUse" x1="-1.0238" y1="3.879" x2="49.7202" y2="3.879">
			<stop  offset="0" style="stop-color:#411874"/>
			<stop  offset="1" style="stop-color:#F2113B"/>
		</linearGradient>
		<path class="st5" d="M42.2,7.7h-0.6c-0.3,0-0.6-0.2-0.6-0.6V0.6C41,0.3,41.3,0,41.6,0h0.6c0.3,0,0.6,0.2,0.6,0.6v6.6
			C42.7,7.5,42.5,7.7,42.2,7.7z"/>
		<g>
			<linearGradient id="SVGID_7_" gradientUnits="userSpaceOnUse" x1="-1.0238" y1="15.6815" x2="49.7202" y2="15.6815">
				<stop  offset="0" style="stop-color:#411874"/>
				<stop  offset="1" style="stop-color:#F2113B"/>
			</linearGradient>
			<path class="st6" d="M37.9,19.3h-4.7c-0.7,0-1.3-0.6-1.3-1.3v-4.7c0-0.7,0.6-1.3,1.3-1.3h4.7c0.7,0,1.3,0.6,1.3,1.3V18
				C39.2,18.8,38.6,19.3,37.9,19.3z M33.2,12.8c-0.3,0-0.6,0.2-0.6,0.6V18c0,0.3,0.2,0.6,0.6,0.6h4.7c0.3,0,0.6-0.2,0.6-0.6v-4.7
				c0-0.3-0.2-0.6-0.6-0.6H33.2z"/>
			<linearGradient id="SVGID_8_" gradientUnits="userSpaceOnUse" x1="-1.0238" y1="14.9627" x2="49.7202" y2="14.9627">
				<stop  offset="0" style="stop-color:#411874"/>
				<stop  offset="1" style="stop-color:#F2113B"/>
			</linearGradient>
			<path class="st7" d="M35.5,17.8l-2.7-3.1c-0.2-0.2-0.2-0.5,0.1-0.7c0.2-0.2,0.5-0.2,0.7,0.1l2,2.4l5.4-4.2
				c0.2-0.2,0.5-0.1,0.7,0.1c0.2,0.2,0.1,0.5-0.1,0.7L35.5,17.8z"/>
		</g>
		<g>
			<linearGradient id="SVGID_9_" gradientUnits="userSpaceOnUse" x1="-1.0238" y1="26.9842" x2="49.7202" y2="26.9842">
				<stop  offset="0" style="stop-color:#411874"/>
				<stop  offset="1" style="stop-color:#F2113B"/>
			</linearGradient>
			<path class="st8" d="M37.9,30.6h-4.7c-0.7,0-1.3-0.6-1.3-1.3v-4.7c0-0.7,0.6-1.3,1.3-1.3h4.7c0.7,0,1.3,0.6,1.3,1.3v4.7
				C39.2,30.1,38.6,30.6,37.9,30.6z M33.2,24.1c-0.3,0-0.6,0.2-0.6,0.6v4.7c0,0.3,0.2,0.6,0.6,0.6h4.7c0.3,0,0.6-0.2,0.6-0.6v-4.7
				c0-0.3-0.2-0.6-0.6-0.6H33.2z"/>
			<linearGradient id="SVGID_10_" gradientUnits="userSpaceOnUse" x1="-1.0238" y1="26.2655" x2="49.7202" y2="26.2655">
				<stop  offset="0" style="stop-color:#411874"/>
				<stop  offset="1" style="stop-color:#F2113B"/>
			</linearGradient>
			<path class="st9" d="M35.5,29.1L32.8,26c-0.2-0.2-0.2-0.5,0.1-0.7c0.2-0.2,0.5-0.2,0.7,0.1l2,2.4l5.4-4.2
				c0.2-0.2,0.5-0.1,0.7,0.1c0.2,0.2,0.1,0.5-0.1,0.7L35.5,29.1z"/>
		</g>
		<g>
			<linearGradient id="SVGID_11_" gradientUnits="userSpaceOnUse" x1="-1.0238" y1="38.2869" x2="49.7202" y2="38.2869">
				<stop  offset="0" style="stop-color:#411874"/>
				<stop  offset="1" style="stop-color:#F2113B"/>
			</linearGradient>
			<path class="st10" d="M37.9,41.9h-4.7c-0.7,0-1.3-0.6-1.3-1.3v-4.7c0-0.7,0.6-1.3,1.3-1.3h4.7c0.7,0,1.3,0.6,1.3,1.3v4.7
				C39.2,41.4,38.6,41.9,37.9,41.9z M33.2,35.4c-0.3,0-0.6,0.2-0.6,0.6v4.7c0,0.3,0.2,0.6,0.6,0.6h4.7c0.3,0,0.6-0.2,0.6-0.6v-4.7
				c0-0.3-0.2-0.6-0.6-0.6H33.2z"/>
			<linearGradient id="SVGID_12_" gradientUnits="userSpaceOnUse" x1="-1.0238" y1="37.5682" x2="49.7202" y2="37.5682">
				<stop  offset="0" style="stop-color:#411874"/>
				<stop  offset="1" style="stop-color:#F2113B"/>
			</linearGradient>
			<path class="st11" d="M35.5,40.4l-2.7-3.1c-0.2-0.2-0.2-0.5,0.1-0.7c0.2-0.2,0.5-0.2,0.7,0.1l2,2.4l5.4-4.2
				c0.2-0.2,0.5-0.1,0.7,0.1c0.2,0.2,0.1,0.5-0.1,0.7L35.5,40.4z"/>
		</g>
	</g>
	<g>
		<linearGradient id="SVGID_13_" gradientUnits="userSpaceOnUse" x1="-1.0238" y1="39.7857" x2="49.7202" y2="39.7857">
			<stop  offset="0" style="stop-color:#411874"/>
			<stop  offset="1" style="stop-color:#F2113B"/>
		</linearGradient>
		<path class="st12" d="M22.3,42.2L22.3,42.2l-1.9-7.9l0,0c-0.1-0.4-0.4-1.1-1.1-1.6c-0.7-0.6-1.5-0.8-1.9-0.8l0,0l-3.5-0.1
			c-0.2,0-0.4,0-0.6,0.1c-0.2,0.1-0.3,0.2-0.4,0.4l0,0l-0.4,0.6c0,0.1-0.1,0.1-0.2,0.2c-0.1,0-0.1,0.1-0.2,0.1l-0.9,0l-0.9,0
			c-0.1,0-0.1,0-0.2-0.1c-0.1,0-0.1-0.1-0.2-0.2l-0.4-0.6l0,0C9.3,32.1,9.2,32,9,31.9c-0.2-0.1-0.5-0.1-0.6-0.1l-3.5,0.1l0,0
			c-0.4,0.1-1.2,0.2-1.9,0.8c-0.6,0.5-0.9,1.2-1.1,1.6l0,0l-1.9,7.9l0,0c0,0.2-0.1,0.6,0.1,1c0.1,0.2,0.3,0.5,0.5,0.6L3,45.6
			c0.2,0.2,0.5,0.2,0.7,0.1c0.2-0.1,0.3-0.3,0.3-0.4l0.9-2.9L5,45.7c0,0.2,0,0.4,0.2,0.7c0.1,0.2,0.3,0.3,0.5,0.4
			C6.1,47,6.6,47.2,7,47.4c0.5,0.2,1.4,0.4,3.1,0.4c0.3,0,0.7,0,1,0c0.4,0,0.7,0,1,0c1.7,0,2.6-0.2,3.1-0.4c0.5-0.2,0.9-0.4,1.4-0.6
			c0.2-0.1,0.4-0.3,0.5-0.4c0.2-0.3,0.2-0.5,0.2-0.7l0.1-3.3l0.9,2.9c0,0.1,0.1,0.3,0.3,0.4c0.2,0.1,0.5,0.1,0.7-0.1l2.3-1.8
			c0.2-0.2,0.4-0.4,0.5-0.6C22.4,42.8,22.3,42.4,22.3,42.2z M11.2,40.8l-1.3-1.2l0.6-4.5l0.7,0l0.7,0l0.6,4.5L11.2,40.8z M10.2,33.8
			l1,0l1,0l0,0L12,34.4l-0.8,0l-0.8,0L10.2,33.8L10.2,33.8z"/>
		<linearGradient id="SVGID_14_" gradientUnits="userSpaceOnUse" x1="-1.0238" y1="25.9072" x2="49.7202" y2="25.9072">
			<stop  offset="0" style="stop-color:#411874"/>
			<stop  offset="1" style="stop-color:#F2113B"/>
		</linearGradient>
		<circle class="st13" cx="11.1" cy="25.9" r="5.1"/>
	</g>
</g>
</svg>
