<?xml version="1.0" encoding="utf-8"?>
<!-- Generator: Adobe Illustrator 22.0.0, SVG Export Plug-In . SVG Version: 6.00 Build 0)  -->
<svg version="1.1" id="Layer_1" xmlns="http://www.w3.org/2000/svg" xmlns:xlink="http://www.w3.org/1999/xlink" x="0px" y="0px"
	 viewBox="0 0 48 48" style="enable-background:new 0 0 48 48;" xml:space="preserve">
<style type="text/css">
	.st0{fill:url(#SVGID_1_);}
	.st1{fill:#FFFFFF;}
</style>
<linearGradient id="SVGID_1_" gradientUnits="userSpaceOnUse" x1="1.5036" y1="24" x2="48.5742" y2="24">
	<stop  offset="0" style="stop-color:#532C89"/>
	<stop  offset="1" style="stop-color:#F2113B"/>
</linearGradient>
<circle class="st0" cx="24.9" cy="24" r="23"/>
<g>
	<g>
		<path class="st1" d="M37.7,9.1H17.1c-1.3,0-2.3,1-2.3,2.3v7.6c0.1,0,0.3,0,0.5,0c0.1,0,0.1,0,0.2,0v-7.6c0-0.9,0.7-1.6,1.6-1.6
			h20.6c0.9,0,1.6,0.7,1.6,1.6v24.8c0,0.9-0.7,1.6-1.6,1.6H23.5c-0.1,0.1-0.1,0.2-0.3,0.3c-0.1,0.1-0.3,0.3-0.5,0.4h14.9
			c1.3,0,2.3-1,2.3-2.3V11.4C40,10.1,39,9.1,37.7,9.1z"/>
		<path class="st1" d="M19.2,12h-0.4c-0.2,0-0.4-0.1-0.4-0.4V7.3c0-0.2,0.1-0.4,0.4-0.4h0.4c0.2,0,0.4,0.1,0.4,0.4v4.4
			C19.6,11.9,19.4,12,19.2,12z"/>
		<path class="st1" d="M23.4,12H23c-0.2,0-0.4-0.1-0.4-0.4V7.3c0-0.2,0.1-0.4,0.4-0.4h0.4c0.2,0,0.4,0.1,0.4,0.4v4.4
			C23.8,11.9,23.7,12,23.4,12z"/>
		<path class="st1" d="M27.7,12h-0.4c-0.2,0-0.4-0.1-0.4-0.4V7.3c0-0.2,0.2-0.4,0.4-0.4h0.4c0.2,0,0.4,0.1,0.4,0.4v4.4
			C28.1,11.9,27.9,12,27.7,12z"/>
		<path class="st1" d="M32,12h-0.4c-0.2,0-0.4-0.1-0.4-0.4V7.3c0-0.2,0.2-0.4,0.4-0.4H32c0.2,0,0.4,0.1,0.4,0.4v4.4
			C32.3,11.9,32.2,12,32,12z"/>
		<path class="st1" d="M36.2,12h-0.4c-0.2,0-0.4-0.1-0.4-0.4V7.3c0-0.2,0.2-0.4,0.4-0.4h0.4c0.2,0,0.4,0.1,0.4,0.4v4.4
			C36.5,11.9,36.4,12,36.2,12z"/>
		<g>
			<path class="st1" d="M33.3,19.8h-3.2c-0.5,0-0.9-0.4-0.9-0.9v-3.2c0-0.5,0.4-0.9,0.9-0.9h3.2c0.5,0,0.9,0.4,0.9,0.9v3.2
				C34.2,19.5,33.8,19.8,33.3,19.8z M30.1,15.5c-0.2,0-0.4,0.1-0.4,0.4v3.1c0,0.2,0.1,0.4,0.4,0.4h3.2c0.2,0,0.4-0.1,0.4-0.4v-3.2
				c0-0.2-0.1-0.4-0.4-0.4L30.1,15.5L30.1,15.5z"/>
			<path class="st1" d="M31.7,18.8l-1.8-2.1c-0.1-0.1-0.1-0.3,0.1-0.5c0.1-0.1,0.3-0.1,0.5,0.1l1.3,1.6l3.6-2.8
				c0.1-0.1,0.3-0.1,0.5,0.1c0.1,0.1,0.1,0.3-0.1,0.5L31.7,18.8z"/>
		</g>
		<g>
			<path class="st1" d="M33.3,27.4h-3.2c-0.5,0-0.9-0.4-0.9-0.9v-3.2c0-0.5,0.4-0.9,0.9-0.9h3.2c0.5,0,0.9,0.4,0.9,0.9v3.2
				C34.2,27.1,33.8,27.4,33.3,27.4z M30.1,23c-0.2,0-0.4,0.1-0.4,0.4v3.2c0,0.2,0.1,0.4,0.4,0.4h3.2c0.2,0,0.4-0.1,0.4-0.4v-3.2
				c0-0.2-0.1-0.4-0.4-0.4H30.1z"/>
			<path class="st1" d="M31.7,26.4l-1.8-2.1c-0.1-0.1-0.1-0.3,0.1-0.5c0.1-0.1,0.3-0.1,0.5,0.1l1.3,1.6l3.6-2.8
				c0.1-0.1,0.3-0.1,0.5,0.1c0.1,0.1,0.1,0.3-0.1,0.5L31.7,26.4z"/>
		</g>
		<g>
			<path class="st1" d="M33.3,35h-3.2c-0.5,0-0.9-0.4-0.9-0.9v-3.2c0-0.5,0.4-0.9,0.9-0.9h3.2c0.5,0,0.9,0.4,0.9,0.9v3.2
				C34.2,34.6,33.8,35,33.3,35z M30.1,30.6c-0.2,0-0.4,0.1-0.4,0.4v3.2c0,0.2,0.1,0.4,0.4,0.4h3.2c0.2,0,0.4-0.1,0.4-0.4V31
				c0-0.2-0.1-0.4-0.4-0.4H30.1z"/>
			<path class="st1" d="M31.7,34l-1.8-2.1c-0.1-0.1-0.1-0.3,0.1-0.5c0.1-0.1,0.3-0.1,0.5,0.1l1.3,1.6l3.6-2.8
				c0.1-0.1,0.3-0.1,0.5,0.1c0.1,0.1,0.1,0.3-0.1,0.5L31.7,34z"/>
		</g>
	</g>
	<g>
		<path class="st1" d="M22.8,35.2L22.8,35.2l-1.3-5.3l0,0c-0.1-0.3-0.3-0.7-0.7-1.1c-0.5-0.4-1-0.5-1.3-0.5l0,0l-2.3-0.1
			c-0.1,0-0.3,0-0.4,0.1c-0.1,0.1-0.2,0.1-0.3,0.3l0,0l-0.3,0.4c0,0.1-0.1,0.1-0.1,0.1c-0.1,0-0.1,0.1-0.1,0.1h-0.6h-0.6
			c-0.1,0-0.1,0-0.1-0.1c-0.1,0-0.1-0.1-0.1-0.1l-0.3-0.4l0,0c-0.1-0.1-0.2-0.2-0.3-0.3c-0.1-0.1-0.3-0.1-0.4-0.1l-2.3,0.1l0,0
			c-0.3,0.1-0.8,0.1-1.3,0.5c-0.4,0.3-0.6,0.8-0.7,1.1l0,0l-1.3,5.3l0,0c0,0.1-0.1,0.4,0.1,0.7C8,36,8.2,36.2,8.3,36.2l1.6,1.2
			c0.1,0.1,0.3,0.1,0.5,0.1s0.2-0.2,0.2-0.3l0.6-1.9l0.1,2.2c0,0.1,0,0.3,0.1,0.5c0.1,0.1,0.2,0.2,0.3,0.3c0.3,0.1,0.6,0.3,0.9,0.4
			c0.3,0.1,0.9,0.3,2.1,0.3c0.2,0,0.5,0,0.7,0c0.3,0,0.5,0,0.7,0c1.1,0,1.7-0.1,2.1-0.3c0.3-0.1,0.6-0.3,0.9-0.4
			c0.1-0.1,0.3-0.2,0.3-0.3c0.1-0.2,0.1-0.3,0.1-0.5l0.1-2.2l0.6,1.9c0,0.1,0.1,0.2,0.2,0.3c0.1,0.1,0.3,0.1,0.5-0.1l1.5-1.2
			c0.1-0.1,0.3-0.3,0.3-0.4C22.9,35.6,22.8,35.3,22.8,35.2z M15.4,34.2l-0.9-0.8l0.4-3h0.5h0.5l0.4,3L15.4,34.2z M14.7,29.5h0.7h0.7
			l0,0l-0.1,0.4h-0.5h-0.5L14.7,29.5L14.7,29.5z"/>
		<circle class="st1" cx="15.3" cy="24.2" r="3.4"/>
	</g>
</g>
</svg>
