<?xml version="1.0" encoding="utf-8"?>
<!-- Generator: Adobe Illustrator 22.0.0, SVG Export Plug-In . SVG Version: 6.00 Build 0)  -->
<svg version="1.0" id="Layer_1" xmlns="http://www.w3.org/2000/svg" xmlns:xlink="http://www.w3.org/1999/xlink" x="0px" y="0px"
	 viewBox="0 0 48 48" style="enable-background:new 0 0 48 48;" xml:space="preserve">
<style type="text/css">
	.st0{fill:url(#SVGID_1_);}
	.st1{fill:url(#SVGID_2_);}
	.st2{fill:url(#SVGID_3_);}
	.st3{fill:url(#SVGID_4_);}
	.st4{fill:url(#SVGID_5_);}
	.st5{fill:url(#SVGID_6_);}
	.st6{fill:url(#SVGID_7_);}
	.st7{fill:url(#SVGID_8_);}
	.st8{fill:url(#SVGID_9_);}
	.st9{fill:url(#SVGID_10_);}
	.st10{fill:url(#SVGID_11_);}
	.st11{fill:url(#SVGID_12_);}
	.st12{fill:url(#SVGID_13_);}
	.st13{fill:url(#SVGID_14_);}
</style>
<g>
	<g>
		<g>
			<linearGradient id="SVGID_1_" gradientUnits="userSpaceOnUse" x1="2.4627" y1="25.1808" x2="44.2995" y2="25.1808">
				<stop  offset="0" style="stop-color:#411874"/>
				<stop  offset="1" style="stop-color:#F2113B"/>
			</linearGradient>
			<path class="st0" d="M6.8,3.3h30.7c1.9,0,3.4,1.5,3.4,3.4v11.2c-0.2,0-0.4,0-0.7,0c-0.1,0-0.2,0-0.3,0V6.7c0-1.3-1.1-2.4-2.4-2.4
				H6.8c-1.3,0-2.4,1.1-2.4,2.4v37C4.4,45,5.5,46,6.8,46H28c0.1,0.1,0.2,0.3,0.4,0.4c0.2,0.2,0.5,0.4,0.7,0.6H6.8
				c-1.9,0-3.4-1.5-3.4-3.4v-37C3.4,4.8,4.9,3.3,6.8,3.3z"/>
			<linearGradient id="SVGID_2_" gradientUnits="userSpaceOnUse" x1="2.4627" y1="3.8577" x2="44.2995" y2="3.8577">
				<stop  offset="0" style="stop-color:#411874"/>
				<stop  offset="1" style="stop-color:#F2113B"/>
			</linearGradient>
			<path class="st1" d="M34.3,7.7h0.6c0.3,0,0.6-0.2,0.6-0.6V0.6c0-0.3-0.2-0.6-0.6-0.6h-0.6c-0.3,0-0.6,0.2-0.6,0.6v6.6
				C33.8,7.5,34,7.7,34.3,7.7z"/>
			<linearGradient id="SVGID_3_" gradientUnits="userSpaceOnUse" x1="2.4627" y1="3.8577" x2="44.2995" y2="3.8577">
				<stop  offset="0" style="stop-color:#411874"/>
				<stop  offset="1" style="stop-color:#F2113B"/>
			</linearGradient>
			<path class="st2" d="M28,7.7h0.6c0.3,0,0.6-0.2,0.6-0.6V0.6c0-0.3-0.2-0.6-0.6-0.6H28c-0.3,0-0.6,0.2-0.6,0.6v6.6
				C27.5,7.5,27.7,7.7,28,7.7z"/>
			<linearGradient id="SVGID_4_" gradientUnits="userSpaceOnUse" x1="2.4627" y1="3.8577" x2="44.2995" y2="3.8577">
				<stop  offset="0" style="stop-color:#411874"/>
				<stop  offset="1" style="stop-color:#F2113B"/>
			</linearGradient>
			<path class="st3" d="M21.7,7.7h0.6c0.3,0,0.6-0.2,0.6-0.6V0.6c0-0.3-0.2-0.6-0.6-0.6h-0.6c-0.3,0-0.6,0.2-0.6,0.6v6.6
				C21.2,7.5,21.4,7.7,21.7,7.7z"/>
			<linearGradient id="SVGID_5_" gradientUnits="userSpaceOnUse" x1="2.4627" y1="3.8577" x2="44.2995" y2="3.8577">
				<stop  offset="0" style="stop-color:#411874"/>
				<stop  offset="1" style="stop-color:#F2113B"/>
			</linearGradient>
			<path class="st4" d="M15.4,7.7H16c0.3,0,0.6-0.2,0.6-0.6V0.6C16.6,0.2,16.3,0,16,0h-0.6c-0.3,0-0.6,0.2-0.6,0.6v6.6
				C14.9,7.5,15.1,7.7,15.4,7.7z"/>
			<linearGradient id="SVGID_6_" gradientUnits="userSpaceOnUse" x1="2.4627" y1="3.8577" x2="44.2995" y2="3.8577">
				<stop  offset="0" style="stop-color:#411874"/>
				<stop  offset="1" style="stop-color:#F2113B"/>
			</linearGradient>
			<path class="st5" d="M9.1,7.7h0.6c0.3,0,0.6-0.2,0.6-0.6V0.6C10.3,0.2,10,0,9.7,0H9.1C8.8,0,8.6,0.2,8.6,0.6v6.6
				C8.6,7.5,8.8,7.7,9.1,7.7z"/>
			<g>
				<linearGradient id="SVGID_7_" gradientUnits="userSpaceOnUse" x1="2.377" y1="19.7148" x2="44.2138" y2="19.7148">
					<stop  offset="0" style="stop-color:#411874"/>
					<stop  offset="1" style="stop-color:#F2113B"/>
				</linearGradient>
				<path class="st6" d="M15.4,23.4h-4.7c-0.7,0-1.3-0.6-1.3-1.3v-4.7c0-0.7,0.6-1.3,1.3-1.3h4.7c0.7,0,1.3,0.6,1.3,1.3v4.7
					C16.7,22.8,16.1,23.4,15.4,23.4z M10.7,16.8c-0.3,0-0.6,0.2-0.6,0.6v4.7c0,0.3,0.2,0.6,0.6,0.6h4.7c0.3,0,0.6-0.2,0.6-0.6v-4.7
					c0-0.3-0.2-0.6-0.6-0.6H10.7z"/>
				<linearGradient id="SVGID_8_" gradientUnits="userSpaceOnUse" x1="2.377" y1="18.9977" x2="44.2138" y2="18.9977">
					<stop  offset="0" style="stop-color:#411874"/>
					<stop  offset="1" style="stop-color:#F2113B"/>
				</linearGradient>
				<path class="st7" d="M13,21.9l-2.7-3.1c-0.2-0.2-0.2-0.5,0.1-0.7c0.2-0.2,0.5-0.2,0.7,0.1l2,2.4l5.4-4.2
					c0.2-0.2,0.5-0.1,0.7,0.1c0.2,0.2,0.1,0.5-0.1,0.7L13,21.9z"/>
			</g>
			<g>
				<linearGradient id="SVGID_9_" gradientUnits="userSpaceOnUse" x1="2.377" y1="32.9827" x2="44.2138" y2="32.9827">
					<stop  offset="0" style="stop-color:#411874"/>
					<stop  offset="1" style="stop-color:#F2113B"/>
				</linearGradient>
				<path class="st8" d="M15.4,36.6h-4.7c-0.7,0-1.3-0.6-1.3-1.3v-4.7c0-0.7,0.6-1.3,1.3-1.3h4.7c0.7,0,1.3,0.6,1.3,1.3v4.7
					C16.7,36,16.1,36.6,15.4,36.6z M10.7,30.1c-0.3,0-0.6,0.2-0.6,0.6v4.7c0,0.3,0.2,0.6,0.6,0.6h4.7c0.3,0,0.6-0.2,0.6-0.6v-4.7
					c0-0.3-0.2-0.6-0.6-0.6H10.7z"/>
				<linearGradient id="SVGID_10_" gradientUnits="userSpaceOnUse" x1="2.377" y1="32.2657" x2="44.2138" y2="32.2657">
					<stop  offset="0" style="stop-color:#411874"/>
					<stop  offset="1" style="stop-color:#F2113B"/>
				</linearGradient>
				<path class="st9" d="M13,35.1L10.3,32c-0.2-0.2-0.2-0.5,0.1-0.7c0.2-0.2,0.5-0.2,0.7,0.1l2,2.4l5.4-4.2c0.2-0.2,0.5-0.1,0.7,0.1
					c0.2,0.2,0.1,0.5-0.1,0.7L13,35.1z"/>
			</g>
		</g>
	</g>
	<g>
		<linearGradient id="SVGID_11_" gradientUnits="userSpaceOnUse" x1="32.841" y1="36.022" x2="34.9203" y2="36.022">
			<stop  offset="0" style="stop-color:#411874"/>
			<stop  offset="1" style="stop-color:#F2113B"/>
		</linearGradient>
		<path class="st10" d="M33.9,36L33.9,36C33.9,36,33.9,36,33.9,36z"/>
		<g>
			<linearGradient id="SVGID_12_" gradientUnits="userSpaceOnUse" x1="2.4627" y1="38.6726" x2="44.2995" y2="38.6726">
				<stop  offset="0" style="stop-color:#411874"/>
				<stop  offset="1" style="stop-color:#F2113B"/>
			</linearGradient>
			<path class="st11" d="M30.5,34.2C30.5,34.2,30.5,34.2,30.5,34.2C30.5,34.2,30.5,34.2,30.5,34.2c0,0.1,0,0.1,0,0.1
				c0,0,0,0.1,0,0.1c0,2.3,0,4.6,0,6.9l-1.8,0c-0.1,0-0.2,0.1-0.3,0.2c-0.1,0.1-0.1,0.2,0,0.3l3.5,6.1c0.1,0.1,0.2,0.2,0.3,0.2
				c0.1,0,0.2-0.1,0.3-0.2l3.5-6c0-0.1,0-0.1,0-0.2c0-0.1,0-0.1,0-0.2c-0.1-0.1-0.2-0.2-0.3-0.2l-1.8,0c0-0.3,0-0.7,0-1
				c-0.1,0-0.2-0.1-0.3-0.1c-0.1,0-0.2-0.1-0.3-0.1c0,0.5,0,1,0,1.5c0,0.2,0.2,0.4,0.4,0.4l1.5,0l-3,5.3l-3-5.3l1.5,0
				c0.1,0,0.2,0,0.3-0.1c0.1-0.1,0.1-0.2,0.1-0.3c0-0.2,0-2.1,0-4.6c0-0.3,0-0.6,0-0.9c0-0.7,0-1.1,0-1.3c0,0,0-0.4,0-0.4
				c0,0,0-0.7,0.2-1.4c0.3-1.2,1.1-2.2,2-2.9l0-0.7C31.7,30.3,30.6,32.1,30.5,34.2z"/>
			<linearGradient id="SVGID_13_" gradientUnits="userSpaceOnUse" x1="2.4627" y1="29.9463" x2="44.2995" y2="29.9463">
				<stop  offset="0" style="stop-color:#411874"/>
				<stop  offset="1" style="stop-color:#F2113B"/>
			</linearGradient>
			<path class="st12" d="M42.2,34.4C42.2,34.4,42.2,34.4,42.2,34.4C42.2,34.4,42.2,34.4,42.2,34.4c0-0.1,0-0.1,0-0.1
				c0,0,0-0.1,0-0.1c0-2.3,0-4.6,0-6.9l1.8,0c0.1,0,0.2-0.1,0.3-0.2c0.1-0.1,0.1-0.2,0-0.3l-3.5-6.1c-0.1-0.1-0.2-0.2-0.3-0.2
				c-0.1,0-0.2,0.1-0.3,0.2l-3.5,6c0,0.1,0,0.1,0,0.2c0,0.1,0,0.1,0,0.2c0.1,0.1,0.2,0.2,0.3,0.2l1.8,0c0,0.3,0,0.6,0,0.9
				c0.1,0,0.2,0.1,0.3,0.1c0.1,0,0.2,0.1,0.3,0.1c0-0.5,0-1,0-1.4c0-0.2-0.2-0.4-0.4-0.4l-1.5,0l3-5.3l3,5.3l-1.5,0
				c-0.1,0-0.2,0-0.3,0.1c-0.1,0.1-0.1,0.2-0.1,0.3c0,0.2,0,2.1,0,4.6c0,0.3,0,0.6,0,0.9c0,0.7,0,1.1,0,1.3c0,0,0,0.4,0,0.4
				c0,0,0,0.7-0.2,1.4c-0.3,1.2-1.1,2.2-2,2.9l0,0.7C41.1,38.3,42.2,36.5,42.2,34.4z"/>
		</g>
		<linearGradient id="SVGID_14_" gradientUnits="userSpaceOnUse" x1="2.4627" y1="34.2928" x2="44.2995" y2="34.2928">
			<stop  offset="0" style="stop-color:#411874"/>
			<stop  offset="1" style="stop-color:#F2113B"/>
		</linearGradient>
		<path class="st13" d="M36.4,28.5c-3.2,0-5.8,2.6-5.8,5.8c0,3.2,2.6,5.8,5.8,5.8c3.2,0,5.8-2.6,5.8-5.8
			C42.3,31.1,39.6,28.5,36.4,28.5z M37.9,34.1C37.9,34.1,37.9,34.1,37.9,34.1l-0.5,0c-0.1,0.7-0.7,1.2-1.4,1.2l1.4,1.3
			c0.1,0.1,0.1,0.2,0.1,0.3c0,0.1-0.1,0.2-0.2,0.3c0,0-0.1,0-0.1,0c-0.1,0-0.2,0-0.3-0.1l-2.1-1.9c-0.1-0.1-0.1-0.3-0.1-0.4
			c0.1-0.1,0.2-0.2,0.3-0.2c0,0,0,0,0,0l0.8,0c0.3,0,0.6-0.2,0.8-0.5l-1.6,0c-0.1,0-0.2,0-0.3-0.1c-0.1-0.1-0.1-0.2-0.1-0.3
			c0-0.1,0-0.2,0.1-0.3c0.1-0.1,0.2-0.1,0.3-0.1c0,0,0,0,0,0l1.6,0c-0.1-0.3-0.4-0.5-0.8-0.5l-0.8,0c-0.2,0-0.4-0.2-0.4-0.4
			c0-0.1,0-0.2,0.1-0.3c0.1-0.1,0.2-0.1,0.3-0.1l2.8,0c0.1,0,0.2,0,0.3,0.1c0.1,0.1,0.1,0.2,0.1,0.3c0,0.2-0.2,0.4-0.4,0.4
			c0,0,0,0,0,0l-0.7,0c0.1,0.2,0.2,0.3,0.2,0.5l0.5,0c0.1,0,0.2,0,0.3,0.1c0.1,0.1,0.1,0.2,0.1,0.3C38.2,33.9,38.1,34.1,37.9,34.1z"
			/>
	</g>
</g>
</svg>
