<?xml version="1.0" encoding="utf-8"?>
<!-- Generator: Adobe Illustrator 22.0.0, SVG Export Plug-In . SVG Version: 6.00 Build 0)  -->
<svg version="1.1" id="Layer_1" xmlns="http://www.w3.org/2000/svg" xmlns:xlink="http://www.w3.org/1999/xlink" x="0px" y="0px"
	 viewBox="0 0 48 48" style="enable-background:new 0 0 48 48;" xml:space="preserve">
<style type="text/css">
	.st0{fill:url(#SVGID_1_);}
	.st1{fill:#FFFFFF;}
</style>
<linearGradient id="SVGID_1_" gradientUnits="userSpaceOnUse" x1="1.5036" y1="24" x2="48.5742" y2="24">
	<stop  offset="0" style="stop-color:#532C89"/>
	<stop  offset="1" style="stop-color:#F2113B"/>
</linearGradient>
<circle class="st0" cx="24.9" cy="24" r="23"/>
<g>
	<g>
		<path class="st1" d="M14.1,9.8h21.1c1.3,0,2.3,1,2.3,2.3v7.7c-0.1,0-0.3,0-0.5,0c-0.1,0-0.1,0-0.2,0v-7.7c0-0.9-0.8-1.7-1.7-1.7
			H14.1c-0.9,0-1.7,0.8-1.7,1.7v25.5c0,0.9,0.8,1.6,1.7,1.6h14.6c0.1,0.1,0.1,0.2,0.3,0.3c0.1,0.1,0.3,0.3,0.5,0.4H14.1
			c-1.3,0-2.3-1-2.3-2.3V12C11.8,10.8,12.8,9.8,14.1,9.8z"/>
		<path class="st1" d="M33.1,12.8h0.4c0.2,0,0.4-0.1,0.4-0.4V7.9c0-0.2-0.1-0.4-0.4-0.4h-0.4c-0.2,0-0.4,0.1-0.4,0.4v4.5
			C32.7,12.6,32.9,12.8,33.1,12.8z"/>
		<path class="st1" d="M28.7,12.8h0.4c0.2,0,0.4-0.1,0.4-0.4V7.9c0-0.2-0.1-0.4-0.4-0.4h-0.4c-0.2,0-0.4,0.1-0.4,0.4v4.5
			C28.4,12.6,28.5,12.8,28.7,12.8z"/>
		<path class="st1" d="M24.4,12.8h0.4c0.2,0,0.4-0.1,0.4-0.4V7.9c0-0.2-0.1-0.4-0.4-0.4h-0.4c-0.2,0-0.4,0.1-0.4,0.4v4.5
			C24,12.6,24.2,12.8,24.4,12.8z"/>
		<path class="st1" d="M20,12.8h0.4c0.2,0,0.4-0.1,0.4-0.4V7.9c0-0.3-0.2-0.4-0.4-0.4H20c-0.2,0-0.4,0.1-0.4,0.4v4.5
			C19.7,12.6,19.8,12.8,20,12.8z"/>
		<path class="st1" d="M15.7,12.8h0.4c0.2,0,0.4-0.1,0.4-0.4V7.9c0-0.3-0.2-0.4-0.4-0.4h-0.4c-0.2,0-0.3,0.1-0.3,0.4v4.5
			C15.4,12.6,15.5,12.8,15.7,12.8z"/>
		<g>
			<path class="st1" d="M20,23.6h-3.2c-0.5,0-0.9-0.4-0.9-0.9v-3.2c0-0.5,0.4-0.9,0.9-0.9H20c0.5,0,0.9,0.4,0.9,0.9v3.2
				C20.9,23.2,20.5,23.6,20,23.6z M16.8,19.1c-0.2,0-0.4,0.1-0.4,0.4v3.2c0,0.2,0.1,0.4,0.4,0.4H20c0.2,0,0.4-0.1,0.4-0.4v-3.2
				c0-0.2-0.1-0.4-0.4-0.4C20,19.1,16.8,19.1,16.8,19.1z"/>
			<path class="st1" d="M18.4,22.6l-1.9-2.1c-0.1-0.1-0.1-0.3,0.1-0.5c0.1-0.1,0.3-0.1,0.5,0.1l1.4,1.7l3.7-2.9
				c0.1-0.1,0.3-0.1,0.5,0.1c0.1,0.1,0.1,0.3-0.1,0.5L18.4,22.6z"/>
		</g>
		<g>
			<path class="st1" d="M20,32.7h-3.2c-0.5,0-0.9-0.4-0.9-0.9v-3.2c0-0.5,0.4-0.9,0.9-0.9H20c0.5,0,0.9,0.4,0.9,0.9v3.2
				C20.9,32.3,20.5,32.7,20,32.7z M16.8,28.2c-0.2,0-0.4,0.1-0.4,0.4v3.2c0,0.2,0.1,0.4,0.4,0.4H20c0.2,0,0.4-0.1,0.4-0.4v-3.2
				c0-0.2-0.1-0.4-0.4-0.4H16.8z"/>
			<path class="st1" d="M18.4,31.7l-1.9-2.1c-0.1-0.1-0.1-0.3,0.1-0.5c0.1-0.1,0.3-0.1,0.5,0.1l1.4,1.7l3.7-2.9
				c0.1-0.1,0.3-0.1,0.5,0.1c0.1,0.1,0.1,0.3-0.1,0.5L18.4,31.7z"/>
		</g>
	</g>
</g>
<g>
	<path class="st1" d="M32.8,32.3L32.8,32.3L32.8,32.3z"/>
	<g>
		<path class="st1" d="M30.4,31L30.4,31L30.4,31C30.4,31.1,30.4,31.1,30.4,31v0.1c0,1.6,0,3.2,0,4.8h-1.2c-0.1,0-0.1,0.1-0.2,0.1
			c-0.1,0.1-0.1,0.1,0,0.2l2.4,4.2c0.1,0.1,0.1,0.1,0.2,0.1c0.1,0,0.1-0.1,0.2-0.1l2.4-4.1c0-0.1,0-0.1,0-0.1c0-0.1,0-0.1,0-0.1
			c-0.1-0.1-0.1-0.1-0.2-0.1h-1.2c0-0.2,0-0.5,0-0.7c-0.1,0-0.1-0.1-0.2-0.1s-0.1-0.1-0.2-0.1c0,0.3,0,0.7,0,1
			c0,0.1,0.1,0.3,0.3,0.3h1l-2.1,3.7l-2.1-3.7h1c0.1,0,0.1,0,0.2-0.1c0.1-0.1,0.1-0.1,0.1-0.2c0-0.1,0-1.4,0-3.2c0-0.2,0-0.4,0-0.6
			c0-0.5,0-0.8,0-0.9v-0.3c0,0,0-0.5,0.1-1c0.2-0.8,0.8-1.5,1.4-2v-0.5C31.3,28.4,30.5,29.6,30.4,31z"/>
		<path class="st1" d="M38.5,31.2L38.5,31.2L38.5,31.2C38.5,31.1,38.5,31.1,38.5,31.2V31c0-1.6,0-3.2,0-4.8h1.2
			c0.1,0,0.1-0.1,0.2-0.1c0.1-0.1,0.1-0.1,0-0.2l-2.4-4.2c-0.1-0.1-0.1-0.1-0.2-0.1c-0.1,0-0.1,0.1-0.2,0.1l-2.4,4.1
			c0,0.1,0,0.1,0,0.1s0,0.1,0,0.1c0.1,0.1,0.1,0.1,0.2,0.1h1.2c0,0.2,0,0.4,0,0.6c0.1,0,0.1,0.1,0.2,0.1s0.1,0.1,0.2,0.1
			c0-0.3,0-0.7,0-1c0-0.1-0.1-0.3-0.3-0.3h-1l2.1-3.7l2.1,3.7h-1c-0.1,0-0.1,0-0.2,0.1s-0.1,0.1-0.1,0.2c0,0.1,0,1.4,0,3.2
			c0,0.2,0,0.4,0,0.6c0,0.5,0,0.8,0,0.9V31c0,0,0,0.5-0.1,1c-0.2,0.8-0.8,1.5-1.4,2v0.5C37.7,33.9,38.5,32.6,38.5,31.2z"/>
	</g>
	<path class="st1" d="M34.5,27.1c-2.2,0-4,1.8-4,4s1.8,4,4,4c2.2,0,4-1.8,4-4C38.6,28.9,36.7,27.1,34.5,27.1z M35.5,31L35.5,31h-0.3
		c-0.1,0.5-0.5,0.8-1,0.8l1,0.9c0.1,0.1,0.1,0.1,0.1,0.2s-0.1,0.1-0.1,0.2h-0.1c-0.1,0-0.1,0-0.2-0.1l-1.4-1.3
		c-0.1-0.1-0.1-0.2-0.1-0.3c0.1-0.1,0.1-0.1,0.2-0.1l0,0h0.6c0.2,0,0.4-0.1,0.6-0.3h-1.1c-0.1,0-0.1,0-0.2-0.1
		c-0.1-0.1-0.1-0.1-0.1-0.2c0-0.1,0-0.1,0.1-0.2s0.1-0.1,0.2-0.1l0,0h1.1c-0.1-0.2-0.3-0.3-0.6-0.3h-0.6c-0.1,0-0.3-0.1-0.3-0.3
		c0-0.1,0-0.1,0.1-0.2s0.1-0.1,0.2-0.1h1.9c0.1,0,0.1,0,0.2,0.1s0.1,0.1,0.1,0.2c0,0.1-0.1,0.3-0.3,0.3l0,0H35
		c0.1,0.1,0.1,0.2,0.1,0.3h0.3c0.1,0,0.1,0,0.2,0.1s0.1,0.1,0.1,0.2C35.7,30.8,35.7,31,35.5,31z"/>
</g>
</svg>
