<?xml version="1.0" encoding="utf-8"?>
<!-- Generator: Adobe Illustrator 22.0.0, SVG Export Plug-In . SVG Version: 6.00 Build 0)  -->
<svg version="1.0" id="Layer_1" xmlns="http://www.w3.org/2000/svg" xmlns:xlink="http://www.w3.org/1999/xlink" x="0px" y="0px"
	 viewBox="0 0 48 48" style="enable-background:new 0 0 48 48;" xml:space="preserve">
<style type="text/css">
	.st0{fill:url(#SVGID_1_);}
	.st1{fill:url(#SVGID_2_);}
	.st2{fill:url(#SVGID_3_);}
	.st3{fill:url(#SVGID_4_);}
	.st4{fill:url(#SVGID_5_);}
	.st5{fill:url(#SVGID_6_);}
</style>
<g>
	<g>
		<g>
			<linearGradient id="SVGID_1_" gradientUnits="userSpaceOnUse" x1="16.8644" y1="26.9363" x2="20.3926" y2="26.9363">
				<stop  offset="0" style="stop-color:#411874"/>
				<stop  offset="1" style="stop-color:#F2113B"/>
			</linearGradient>
			<path class="st0" d="M18.6,26.9L18.6,26.9C18.6,26.9,18.6,26.9,18.6,26.9z"/>
			<linearGradient id="SVGID_2_" gradientUnits="userSpaceOnUse" x1="5.8431" y1="23.9715" x2="40.8569" y2="23.9715">
				<stop  offset="0" style="stop-color:#411874"/>
				<stop  offset="1" style="stop-color:#F2113B"/>
			</linearGradient>
			<path class="st1" d="M33.4,24.2c-0.1,5.7-4.8,10.2-10.5,10c-5.7-0.1-10.2-4.8-10-10.5c0.1-5.7,4.8-10.2,10.5-10
				C29,13.8,33.5,18.5,33.4,24.2z M14,23.8c-0.1,5.1,3.9,9.3,9,9.4c5.1,0.1,9.3-3.9,9.4-9c0.1-5.1-3.9-9.3-9-9.4
				C18.3,14.7,14.1,18.7,14,23.8z"/>
			<g>
				<linearGradient id="SVGID_3_" gradientUnits="userSpaceOnUse" x1="5.8431" y1="31.5742" x2="40.8569" y2="31.5742">
					<stop  offset="0" style="stop-color:#411874"/>
					<stop  offset="1" style="stop-color:#F2113B"/>
				</linearGradient>
				<path class="st2" d="M12.8,23.6C12.8,23.6,12.8,23.6,12.8,23.6C12.8,23.7,12.8,23.7,12.8,23.6c0,0.1,0,0.1,0,0.2
					c0,0.1,0,0.1,0,0.2c-0.1,4-0.2,8.1-0.3,12.1L9.5,36c-0.2,0-0.4,0.1-0.5,0.3c-0.1,0.2-0.1,0.4,0,0.6l5.9,10.8
					c0.1,0.2,0.3,0.3,0.5,0.3c0.2,0,0.4-0.1,0.5-0.3l6.4-10.5c0.1-0.1,0.1-0.2,0.1-0.3c0-0.1,0-0.2-0.1-0.3
					c-0.1-0.2-0.3-0.3-0.5-0.3l-3.1-0.1c0-0.6,0-1.2,0-1.8c-0.2-0.1-0.4-0.2-0.5-0.2C18,34.1,17.8,34,17.7,34c0,0.9,0,1.8-0.1,2.7
					c0,0.3,0.3,0.6,0.6,0.6l2.7,0.1l-5.5,9.2l-5.2-9.4l2.7,0.1c0.2,0,0.3-0.1,0.4-0.2c0.2-0.2,0.2-0.4,0.2-0.4
					c0.1-0.4,0.1-3.7,0.2-8.1c0-0.5,0-1.1,0-1.6c0.1-1.3,0.1-1.9,0.1-2.3c0,0,0-0.7,0-0.7c0,0,0-1.3,0.4-2.5c0.6-2.1,1.9-3.8,3.7-5
					l0-1.3C15,16.9,13,20,12.8,23.6z"/>
				<linearGradient id="SVGID_4_" gradientUnits="userSpaceOnUse" x1="5.8431" y1="16.4258" x2="40.8569" y2="16.4258">
					<stop  offset="0" style="stop-color:#411874"/>
					<stop  offset="1" style="stop-color:#F2113B"/>
				</linearGradient>
				<path class="st3" d="M33.4,24.4C33.4,24.4,33.4,24.4,33.4,24.4C33.4,24.3,33.4,24.3,33.4,24.4c0-0.1,0-0.1,0-0.2
					c0-0.1,0-0.1,0-0.2c0.1-4,0.2-8.1,0.3-12.1l3.1,0.1c0.2,0,0.4-0.1,0.5-0.3c0.1-0.2,0.1-0.4,0-0.6L31.4,0.3
					C31.3,0.1,31.1,0,30.9,0c-0.2,0-0.4,0.1-0.5,0.3L24,10.8c-0.1,0.1-0.1,0.2-0.1,0.3c0,0.1,0,0.2,0.1,0.3c0.1,0.2,0.3,0.3,0.5,0.3
					l3.1,0.1c0,0.6,0,1.1,0,1.7c0.2,0.1,0.4,0.2,0.5,0.2c0.2,0.1,0.3,0.2,0.5,0.3c0-0.8,0-1.7,0.1-2.5c0-0.3-0.3-0.6-0.6-0.6
					l-2.7-0.1l5.5-9.2l5.2,9.4l-2.7-0.1c-0.2,0-0.3,0.1-0.4,0.2c-0.2,0.2-0.2,0.4-0.2,0.4c-0.1,0.4-0.1,3.7-0.2,8.1
					c0,0.5,0,1.1,0,1.6c-0.1,1.3-0.1,1.9-0.1,2.3c0,0,0,0.7,0,0.7c0,0,0,1.3-0.4,2.5c-0.6,2.1-1.9,3.8-3.7,5l0,1.3
					C31.3,31.1,33.3,28,33.4,24.4z"/>
			</g>
		</g>
	</g>
	<linearGradient id="SVGID_5_" gradientUnits="userSpaceOnUse" x1="5.8431" y1="20.7119" x2="40.8569" y2="20.7119">
		<stop  offset="0" style="stop-color:#411874"/>
		<stop  offset="1" style="stop-color:#F2113B"/>
	</linearGradient>
	<rect x="22.7" y="17.2" class="st4" width="1" height="7"/>
	<linearGradient id="SVGID_6_" gradientUnits="userSpaceOnUse" x1="5.8431" y1="25.6425" x2="40.8569" y2="25.6425">
		<stop  offset="0" style="stop-color:#411874"/>
		<stop  offset="1" style="stop-color:#F2113B"/>
	</linearGradient>
	<polygon class="st5" points="26,27.8 22.7,24.2 23.4,23.5 26.7,27.1 	"/>
</g>
</svg>
