<?xml version="1.0" encoding="utf-8"?>
<!-- Generator: Adobe Illustrator 22.0.0, SVG Export Plug-In . SVG Version: 6.00 Build 0)  -->
<svg version="1.1" id="Layer_1" xmlns="http://www.w3.org/2000/svg" xmlns:xlink="http://www.w3.org/1999/xlink" x="0px" y="0px"
	 viewBox="0 0 48 48" style="enable-background:new 0 0 48 48;" xml:space="preserve">
<style type="text/css">
	.st0{fill:url(#SVGID_1_);}
	.st1{fill:#FFFFFF;}
</style>
<linearGradient id="SVGID_1_" gradientUnits="userSpaceOnUse" x1="1.5036" y1="24" x2="48.5742" y2="24">
	<stop  offset="0" style="stop-color:#532C89"/>
	<stop  offset="1" style="stop-color:#F2113B"/>
</linearGradient>
<circle class="st0" cx="24.9" cy="24" r="23"/>
<g>
	<g>
		<g>
			<path class="st1" d="M19.4,25.4L19.4,25.4L19.4,25.4z"/>
			<path class="st1" d="M31.7,23.2c-0.1,4.7-4,8.5-8.7,8.3c-4.7-0.1-8.5-4-8.3-8.7c0.1-4.7,4-8.5,8.7-8.3
				C28,14.5,31.8,18.4,31.7,23.2z M15.5,22.8c-0.1,4.2,3.2,7.7,7.5,7.8c4.2,0.1,7.7-3.2,7.8-7.5c0.1-4.2-3.2-7.7-7.5-7.8
				C19.1,15.3,15.6,18.6,15.5,22.8z"/>
			<g>
				<path class="st1" d="M14.5,22.7L14.5,22.7C14.5,22.8,14.5,22.8,14.5,22.7c0,0.1,0,0.1,0,0.2c0,0.1,0,0.1,0,0.2
					c-0.1,3.3-0.2,6.7-0.2,10.1L11.8,33c-0.2,0-0.3,0.1-0.4,0.2c-0.1,0.2-0.1,0.3,0,0.5l4.9,9c0.1,0.2,0.2,0.2,0.4,0.2
					c0.2,0,0.3-0.1,0.4-0.2l5.3-8.7c0.1-0.1,0.1-0.2,0.1-0.2c0-0.1,0-0.2-0.1-0.2c-0.1-0.2-0.2-0.2-0.4-0.2l-2.6-0.1
					c0-0.5,0-1,0-1.5c-0.2-0.1-0.3-0.2-0.4-0.2c-0.2-0.1-0.3-0.2-0.4-0.2c0,0.7,0,1.5-0.1,2.2c0,0.2,0.2,0.5,0.5,0.5l2.2,0.1
					l-4.6,7.7L12.4,34l2.2,0.1c0.2,0,0.2-0.1,0.3-0.2c0.2-0.2,0.2-0.3,0.2-0.3c0.1-0.3,0.1-3.1,0.2-6.7c0-0.4,0-0.9,0-1.3
					c0.1-1.1,0.1-1.6,0.1-1.9V23c0,0,0-1.1,0.3-2.1c0.5-1.7,1.6-3.2,3.1-4.2v-1.1C16.4,17.1,14.7,19.7,14.5,22.7z"/>
				<path class="st1" d="M31.7,23.3L31.7,23.3C31.7,23.2,31.7,23.2,31.7,23.3c0-0.1,0-0.1,0-0.2c0-0.1,0-0.1,0-0.2
					c0.1-3.3,0.2-6.7,0.2-10.1l2.6,0.1c0.2,0,0.3-0.1,0.4-0.2s0.1-0.3,0-0.5l-4.9-9C29.9,3.1,29.8,3,29.6,3s-0.3,0.1-0.4,0.2
					L23.9,12c-0.1,0.1-0.1,0.2-0.1,0.2s0,0.2,0.1,0.2c0.1,0.2,0.2,0.2,0.4,0.2l2.6,0.1c0,0.5,0,0.9,0,1.4c0.2,0.1,0.3,0.2,0.4,0.2
					c0.2,0.1,0.2,0.2,0.4,0.2c0-0.7,0-1.4,0.1-2.1c0-0.2-0.2-0.5-0.5-0.5L25,12l4.6-7.7l4.3,7.8l-2.2-0.1c-0.2,0-0.2,0.1-0.3,0.2
					c-0.2,0.2-0.2,0.3-0.2,0.3c-0.1,0.3-0.1,3.1-0.2,6.7c0,0.4,0,0.9,0,1.3c-0.1,1.1-0.1,1.6-0.1,1.9v0.6c0,0,0,1.1-0.3,2.1
					c-0.5,1.7-1.6,3.2-3.1,4.2v1.1C29.9,28.9,31.6,26.3,31.7,23.3z"/>
			</g>
		</g>
	</g>
	<rect x="22.8" y="17.3" class="st1" width="0.8" height="5.8"/>
	<polygon class="st1" points="25.5,26.2 22.8,23.2 23.4,22.6 26.1,25.6 	"/>
</g>
</svg>
